<svg width="80" height="80" viewBox="0 0 80 80" fill="none" xmlns="http://www.w3.org/2000/svg">
<g id="ico-handshake">
<path id="Vector" d="M76.5137 53.1555L71.4849 27.9131C71.3586 27.2788 70.9918 26.7312 70.452 26.3708C69.9122 26.0106 69.2656 25.8814 68.6315 26.0079L62.1605 27.297C62.1604 27.297 62.1604 27.297 62.1604 27.297C60.8485 27.5585 59.9937 28.8385 60.255 30.1504L60.3171 30.462C56.4387 31.7485 51.7248 32.119 45.8601 27.2803C43.1886 25.0763 39.7071 25.0037 37.1967 27.0994L34.5781 29.2858H20.3179C20.1585 28.317 19.4184 27.4999 18.4003 27.2969L11.9292 26.0077C11.2946 25.8813 10.6484 26.0105 10.1086 26.3707C9.56885 26.7311 9.20207 27.2788 9.07573 27.913L4.04702 53.1555C3.78566 54.4675 4.64045 55.7474 5.95236 56.0089L12.4233 57.298C12.5822 57.3297 12.7417 57.3454 12.9004 57.3454C13.3747 57.3454 13.8394 57.2052 14.2439 56.9352C14.7837 56.5747 15.1506 56.0271 15.2769 55.3928L15.3075 55.2391L30.6569 70.5882C31.5671 71.4986 32.7816 72 34.076 72C35.3704 72 36.5849 71.4986 37.495 70.5883C38.1441 69.9393 38.5854 69.1359 38.7853 68.259L40.9189 70.3926C42.8044 72.2779 45.8722 72.2777 47.7575 70.3923C48.4215 69.7282 48.8516 68.9172 49.0479 68.0631C49.9526 68.9436 51.1472 69.4277 52.4191 69.4277C53.7137 69.4277 54.928 68.9261 55.8384 68.0156C56.8864 66.9674 57.3518 65.5542 57.2345 64.1816C57.3713 64.1929 57.5091 64.1988 57.6479 64.1988C58.9424 64.1988 60.1566 63.6973 61.067 62.7868C62.3429 61.5112 62.7789 59.6053 62.2529 57.9131L65.1987 54.9675L65.2835 55.3929C65.4098 56.0272 65.7767 56.5748 66.3165 56.9353C66.7212 57.2054 67.1857 57.3455 67.66 57.3455C67.8185 57.3455 67.9782 57.3299 68.1371 57.2982L74.608 56.009C75.9202 55.7474 76.775 54.4675 76.5137 53.1555ZM12.9798 55.0418C12.9557 55.0579 12.9169 55.0753 12.8682 55.0654L6.39726 53.7763C6.31901 53.7608 6.26395 53.6784 6.2796 53.6003L11.3083 28.3578C11.318 28.3095 11.3487 28.28 11.3728 28.2639C11.3921 28.2511 11.4207 28.2376 11.4563 28.2376C11.4651 28.2376 11.4746 28.2385 11.4844 28.2405L17.9554 29.5296C18.0336 29.5453 18.0887 29.6275 18.0731 29.7058L13.0443 54.9479C13.0347 54.9964 13.0039 55.0257 12.9798 55.0418ZM59.4577 61.1769C58.9771 61.6575 58.3345 61.9222 57.6481 61.9222C56.9618 61.9222 56.319 61.6576 55.8385 61.177L44.8293 50.1679C44.3847 49.7233 43.6642 49.7234 43.2196 50.1679C42.7751 50.6124 42.7751 51.333 43.2196 51.7775L54.2288 62.7866C55.2266 63.7843 55.2266 65.4078 54.2288 66.4057C53.7484 66.8863 53.1056 67.151 52.4191 67.151C51.7328 67.151 51.0901 66.8865 50.6096 66.4059L38.9765 54.7731C38.5322 54.3284 37.8116 54.3287 37.367 54.7731C36.9225 55.2177 36.9225 55.9381 37.3671 56.3826L46.147 65.1625L46.1478 65.1633H46.1479C47.1455 66.1609 47.1455 67.7844 46.1478 68.7823C45.1498 69.7804 43.5261 69.7801 42.5286 68.7825L33.1242 59.3782C32.6799 58.9339 31.9592 58.9336 31.5145 59.3782C31.07 59.8227 31.07 60.5433 31.5145 60.9878L35.8857 65.3589C36.3664 65.8394 36.6308 66.4822 36.6308 67.1685C36.6308 67.8548 36.3662 68.4975 35.8855 68.9782C35.4051 69.4585 34.7625 69.7232 34.076 69.7232C33.3895 69.7232 32.7469 69.4585 32.2664 68.9781L15.8423 52.5546L20.0244 31.5622H31.8518L28.5199 34.3441C27.0774 35.5483 26.4578 37.1907 26.82 38.8498L29.4521 50.9111C29.5177 51.2112 29.7016 51.4721 29.9623 51.6345C30.2231 51.7968 30.5383 51.8472 30.8365 51.7736C33.9975 50.9947 36.111 49.4712 37.298 47.1162C38.3239 45.0809 38.5277 42.765 38.7433 40.3135C38.7707 40.0019 38.7984 39.6885 38.8279 39.3742C38.8314 39.3476 38.8358 39.3288 38.8394 39.3163C39.2319 39.151 41.1637 39.5336 44.1226 42.2225L59.9729 58.3039C60.4084 59.2661 60.2072 60.4276 59.4577 61.1769ZM60.9223 56.0245L45.7219 40.6026C45.7076 40.5881 45.6931 40.574 45.6778 40.5602C42.6437 37.7958 39.7871 36.5352 38.0342 37.189C37.2096 37.4966 36.6742 38.1994 36.5658 39.117C36.5647 39.1259 36.5637 39.1349 36.5628 39.144C36.5322 39.4687 36.5038 39.7922 36.4755 40.114C36.1064 44.3079 35.8091 47.6852 31.4153 49.2312L29.0439 38.3646C28.804 37.2663 29.5266 36.4691 29.9786 36.0918L38.6556 28.8471C40.2985 27.4756 42.6115 27.5517 44.4114 29.0365C51.0049 34.4764 56.5246 34.0614 60.765 32.7105L64.6641 52.2831L60.9223 56.0245ZM74.1634 53.7763L67.6925 55.0654C67.6437 55.0753 67.6048 55.0579 67.5809 55.0418C67.5567 55.0257 67.526 54.9964 67.5163 54.9479L62.4876 29.7056C62.4721 29.6275 62.5269 29.5451 62.6051 29.5295L69.0762 28.2403C69.1247 28.2305 69.1637 28.2479 69.1879 28.2639C69.212 28.28 69.2427 28.3093 69.2524 28.3578L74.2811 53.6003C74.2967 53.6785 74.2417 53.7608 74.1634 53.7763ZM39.1421 17.1077V9.1382C39.1421 8.50963 39.6518 8 40.2803 8C40.9089 8 41.4185 8.50963 41.4185 9.1382V17.1077C41.4185 17.7363 40.9089 18.2459 40.2803 18.2459C39.6518 18.2459 39.1421 17.7363 39.1421 17.1077ZM28.8868 12.496C28.5724 11.9517 28.7591 11.2555 29.3034 10.9413C29.848 10.627 30.544 10.8136 30.8582 11.3578L34.843 18.2596C35.1574 18.8039 34.9708 19.5001 34.4264 19.8144C34.2472 19.9178 34.0514 19.967 33.8585 19.967C33.4649 19.967 33.0825 19.7629 32.8717 19.3978L28.8868 12.496ZM21.2677 18.9769C21.5818 18.4325 22.278 18.2458 22.8225 18.5604L29.7244 22.5451C30.2687 22.8593 30.4554 23.5555 30.141 24.0998C29.9303 24.4649 29.5475 24.6691 29.1541 24.6691C28.9612 24.6691 28.7655 24.6199 28.5862 24.5164L21.6843 20.5317C21.1399 20.2174 20.9533 19.5213 21.2677 18.9769ZM45.7178 18.2597L49.7026 11.358C50.0169 10.8135 50.7132 10.627 51.2574 10.9414C51.8018 11.2557 51.9884 11.9518 51.674 12.4962L47.6892 19.3979C47.4785 19.763 47.0957 19.9672 46.7023 19.9672C46.5093 19.9672 46.3137 19.918 46.1344 19.8145C45.5899 19.5002 45.4034 18.8041 45.7178 18.2597ZM50.8364 22.5451L57.7382 18.5604C58.2828 18.2461 58.9788 18.4327 59.293 18.9769C59.6074 19.5213 59.4207 20.2174 58.8764 20.5317L51.9746 24.5164C51.7954 24.6199 51.5996 24.6691 51.4067 24.6691C51.0131 24.6691 50.6307 24.4649 50.4199 24.0998C50.1056 23.5555 50.2921 22.8593 50.8364 22.5451Z" fill="#0E8792"/>
</g>
</svg>
