<svg width="80" height="80" viewBox="0 0 80 80" fill="none" xmlns="http://www.w3.org/2000/svg">
<g id="ico-reward">
<g id="Vector">
<path d="M48.5163 29.684L43.4275 28.945L41.1515 24.3326C41.0285 24.0833 40.8267 23.8817 40.5775 23.7585C39.9513 23.4493 39.1931 23.7063 38.8839 24.3326L36.6078 28.945L31.5177 29.684C31.2421 29.7238 30.9874 29.8532 30.7931 30.0526C30.3054 30.5524 30.3153 31.353 30.8152 31.8406L34.4976 35.4303L33.6279 40.4993C33.6158 40.5698 33.6098 40.6413 33.6098 40.7128C33.6098 41.4111 34.1758 41.9773 34.8741 41.9773C35.0796 41.9757 35.2817 41.9242 35.4629 41.8269L40.015 39.4386L44.5671 41.8269C44.8131 41.9573 45.0953 42.0028 45.3698 41.9566C46.0585 41.8403 46.5223 41.188 46.4062 40.4993L45.5365 35.4303L49.2189 31.8406C49.4181 31.6463 49.5477 31.3916 49.5875 31.116C49.6869 30.4247 49.2075 29.7836 48.5163 29.684ZM43.2927 34.073C42.9931 34.3645 42.8569 34.7852 42.9288 35.197L43.4768 38.3961L40.6037 36.8857C40.4218 36.792 40.2197 36.7437 40.015 36.7452C39.8095 36.7467 39.6075 36.7982 39.4262 36.8956L36.5532 38.4059L37.1025 35.2068C37.1744 34.795 37.0383 34.3744 36.7387 34.0829L34.4148 31.8166L37.6265 31.3502C38.0384 31.2906 38.3946 31.0321 38.5791 30.659L40.015 27.748L41.4509 30.659C41.6352 31.0321 41.9915 31.2907 42.4035 31.3502L45.6166 31.8082L43.2927 34.073Z" fill="#0E8792"/>
<path d="M40.015 16.6277C30.9273 16.6277 23.5603 23.9948 23.5603 33.0825C23.5603 42.1701 30.9273 49.5372 40.015 49.5372C49.0985 49.527 56.4597 42.1659 56.4697 33.0825C56.4697 23.9948 49.1026 16.6277 40.015 16.6277ZM40.015 47.0083C32.324 47.0083 26.0892 40.7734 26.0892 33.0825C26.0892 25.3915 32.324 19.1566 40.015 19.1566C47.7025 19.1652 53.9322 25.395 53.9408 33.0825C53.9408 40.7736 47.706 47.0083 40.015 47.0083Z" fill="#0E8792"/>
<path d="M63.1741 36.4923L60.8082 37.3873C61.1763 38.3608 61.6343 39.572 61.477 40.0567C61.2999 40.6018 60.228 41.3001 59.281 41.9168C58.157 42.6502 56.8785 43.482 56.0004 44.6901C55.1223 45.8984 54.7079 47.3947 54.3523 48.7013C54.0714 49.7284 53.7258 51.0069 53.2776 51.3328C52.8294 51.6587 51.5312 51.587 50.4677 51.5365C49.1092 51.4719 47.5693 51.396 46.1208 51.8709C44.7159 52.326 43.5484 53.2758 42.5143 54.1089C41.6278 54.8255 40.6218 55.6376 40.0164 55.6376C39.411 55.6376 38.4049 54.8255 37.517 54.1062C36.483 53.2702 35.3113 52.3233 33.912 51.8696C33.1112 51.6096 32.2134 51.4889 31.0853 51.4889C30.5641 51.4889 30.0541 51.5127 29.5624 51.5367C28.5073 51.5872 27.195 51.6491 26.7609 51.3329C26.3269 51.0169 25.9657 49.7257 25.6848 48.6986C25.3293 47.3905 24.9275 45.9097 24.0381 44.6874C23.1487 43.4651 21.8829 42.6488 20.7561 41.9141C19.8107 41.2974 18.7386 40.5991 18.5616 40.054C18.4042 39.5721 18.8636 38.3597 19.2318 37.3846C19.7193 36.0962 20.27 34.6365 20.27 33.0826C20.27 31.5287 19.7178 30.069 19.2303 28.7806C18.8622 27.8071 18.4042 26.5945 18.5601 26.1112C18.7372 25.5661 19.8091 24.8678 20.7561 24.2497C21.8801 23.5162 23.1572 22.6845 24.0367 21.4778C24.9162 20.2709 25.3292 18.7732 25.6848 17.4666C25.9657 16.4395 26.3113 15.161 26.7595 14.8351C27.2077 14.5092 28.5059 14.5809 29.5624 14.6314C30.9209 14.696 32.4623 14.7719 33.9177 14.297C35.3226 13.8419 36.4887 12.8921 37.5242 12.059C38.4037 11.3397 39.4097 10.5289 40.0151 10.5289C40.6206 10.5289 41.6267 11.3395 42.513 12.0588C43.5471 12.8947 44.7187 13.8417 46.1195 14.2969C47.5694 14.7675 49.1106 14.6944 50.4749 14.6312C51.5299 14.582 52.8422 14.5202 53.2763 14.835C53.7104 15.1498 54.0645 16.438 54.3455 17.4665C54.7009 18.7745 55.1027 20.2553 55.9921 21.4776C56.8815 22.6999 58.1473 23.5177 59.2741 24.2509C60.2197 24.8677 61.2916 25.566 61.4701 26.1111C61.6275 26.5943 61.168 27.8068 60.7999 28.7805C60.3123 30.0688 59.7603 31.53 59.7603 33.0825C59.7603 34.6349 60.3125 36.0961 60.7999 37.3844L63.1657 36.4909C62.7146 35.2996 62.289 34.1742 62.289 33.0825C62.289 31.9907 62.7105 30.8655 63.1643 29.674C63.7502 28.1285 64.3051 26.6576 63.8737 25.33C63.42 23.9349 62.0136 23.0188 60.6536 22.1323C59.6702 21.4875 58.6417 20.8215 58.0363 19.9898C57.4307 19.1581 57.0978 17.954 56.7845 16.8034C56.3418 15.1764 55.9246 13.6394 54.7571 12.7908C53.5896 11.9422 52.023 12.0266 50.3484 12.1052C49.15 12.1614 47.9094 12.2203 46.8993 11.8916C45.944 11.5811 45.0068 10.8238 44.102 10.0918C42.8248 9.06361 41.5154 8 40.015 8C38.5146 8 37.2051 9.06361 35.9266 10.0934C35.0218 10.8254 34.0848 11.5812 33.1293 11.8917C32.1192 12.2191 30.9333 12.1643 29.6802 12.1053C28.0055 12.0267 26.4236 11.9522 25.2701 12.791C24.1166 13.6297 23.6854 15.1793 23.2428 16.8048C22.9294 17.9555 22.6064 19.1455 21.991 19.9912C21.3755 20.837 20.364 21.4889 19.3736 22.1337C18.0136 23.0202 16.6073 23.9363 16.1535 25.3314C15.7222 26.6591 16.2771 28.1244 16.863 29.6769C17.3126 30.8683 17.7382 31.9936 17.7382 33.0839C17.7382 34.1742 17.3167 35.2994 16.863 36.4923C16.2771 38.0378 15.7222 39.5102 16.1535 40.8364C16.6073 42.2329 18.0136 43.1489 19.3736 44.0355C20.357 44.6803 21.3855 45.3462 21.9895 46.178C22.5937 47.0097 22.928 48.2137 23.2414 49.3644C23.511 50.3591 23.7739 51.3201 24.2038 52.111L19.0814 65.2108C18.8274 65.8613 19.1489 66.5946 19.7994 66.8486C19.9932 66.9242 20.2026 66.9509 20.4091 66.9262L27.5743 66.0692L32.2542 71.5569C32.7078 72.0879 33.506 72.1505 34.037 71.6968C34.1967 71.5603 34.3198 71.3863 34.3954 71.1902L39.5024 58.1242C39.8425 58.1809 40.1895 58.1809 40.5295 58.1242L45.6351 71.1902C45.8895 71.8406 46.6229 72.1615 47.2733 71.9071C47.4674 71.8312 47.6396 71.7085 47.7749 71.5499L52.4548 66.0622L59.62 66.9192C60.3135 67.0013 60.9422 66.5054 61.0242 65.8119C61.0483 65.6085 61.0225 65.4021 60.9491 65.2108L55.8247 52.1083C56.2547 51.3174 56.5159 50.3563 56.7872 49.3617C57.0991 48.211 57.4221 47.021 58.039 46.1752C58.6557 45.3295 59.6659 44.6776 60.6563 44.0328C62.0163 43.1462 63.4241 42.2302 63.8764 40.8351C64.3078 39.5073 63.7543 38.0433 63.1741 36.4923ZM32.8033 68.3087L29.0563 63.9126C28.7814 63.5908 28.3638 63.4279 27.9436 63.4785L22.2057 64.1656L26.2366 53.8561C27.2411 54.1764 28.4338 54.1202 29.6787 54.0613C30.1423 54.0387 30.6214 54.0163 31.0836 54.0163C31.9377 54.0163 32.5883 54.0978 33.1292 54.2735C34.0845 54.584 35.0203 55.3398 35.9265 56.0732C36.348 56.4118 36.7695 56.7533 37.2021 57.0566L32.8033 68.3087ZM57.824 64.1656L52.0875 63.4785C51.6672 63.4283 51.2494 63.5917 50.9748 63.914L47.2264 68.3102L42.8247 57.0593C43.2575 56.7531 43.6817 56.4117 44.1003 56.0759C45.0051 55.3439 45.9422 54.5881 46.8976 54.2776C47.9064 53.9503 49.0908 54.0051 50.3481 54.064C51.6055 54.1231 52.7857 54.1777 53.7903 53.8588L57.824 64.1656Z" fill="#0E8792"/>
</g>
</g>
</svg>
