<svg width="80" height="80" viewBox="0 0 80 80" fill="none" xmlns="http://www.w3.org/2000/svg">
<g id="ico-cactus">
<path id="Vector" d="M70.291 28.354H68.3643V25C68.3643 21.7261 65.7007 19.0625 62.4268 19.0625C61.1338 19.0625 59.9365 19.4795 58.9604 20.1841L57.1797 18.4033C56.8135 18.0376 56.2202 18.0376 55.854 18.4033C55.4878 18.7695 55.4878 19.3633 55.854 19.7295L57.6304 21.5059C56.9136 22.4873 56.4893 23.6948 56.4893 25V33.75C56.4893 33.9224 56.3491 34.0625 56.1768 34.0625H53.5518V21.4375C53.5518 18.8838 52.8359 16.4946 51.5938 14.4595L53.459 12.5942C53.8247 12.228 53.8247 11.6343 53.4585 11.2686C53.0928 10.9023 52.499 10.9023 52.1328 11.2686L50.4917 12.9097C48.0249 9.91357 44.2891 8 40.1143 8C37.4556 8 34.9746 8.77637 32.8862 10.1143L31.0469 8.27441C30.6807 7.90869 30.0869 7.90869 29.7212 8.27441C29.355 8.64062 29.355 9.23438 29.7212 9.60059L31.3667 11.2461C28.4971 13.7124 26.6768 17.3662 26.6768 21.4375V23.4375H24.6055C24.0879 23.4375 23.668 23.8569 23.668 24.375C23.668 24.8931 24.0879 25.3125 24.6055 25.3125H26.6768V52.8428H24.0518C23.8794 52.8428 23.7393 52.7026 23.7393 52.5303V32.9062C23.7393 29.6323 21.0757 26.9688 17.8018 26.9688C16.7778 26.9688 15.8135 27.2295 14.9717 27.688L13.1021 25.8184C12.7358 25.4521 12.1426 25.4521 11.7764 25.8184C11.4102 26.1846 11.4102 26.7778 11.7764 27.144L13.4771 28.8447C12.478 29.9077 11.8643 31.3359 11.8643 32.9062V40.854H9.9375C9.41992 40.854 9 41.2739 9 41.7915C9 42.3096 9.41992 42.729 9.9375 42.729H11.8643V53.499C11.8643 59.6851 16.897 64.7178 23.083 64.7178H26.6768V69.8125C26.6768 71.0186 27.6582 72 28.8643 72H51.3643C52.5703 72 53.5518 71.0186 53.5518 69.8125V55.729H55.4785C55.9966 55.729 56.416 55.3096 56.416 54.7915C56.416 54.2739 55.9966 53.854 55.4785 53.854H53.5518V45.9375H57.1455C63.3315 45.9375 68.3643 40.9048 68.3643 34.7188V30.229H70.291C70.8091 30.229 71.2285 29.8096 71.2285 29.2915C71.2285 28.7739 70.8091 28.354 70.291 28.354ZM56.1768 35.9375C57.3828 35.9375 58.3643 34.9561 58.3643 33.75V25C58.3643 23.9258 58.7842 22.9482 59.4673 22.2212C59.5059 22.1929 59.5435 22.1626 59.5781 22.1279C59.6118 22.0942 59.6416 22.0581 59.6689 22.0205C60.1738 21.5527 60.7979 21.2119 61.4893 21.0479V34.5161C61.4893 37.0229 59.4497 39.0625 56.9429 39.0625H53.5518V35.9375H56.1768ZM23.083 62.8428C17.9312 62.8428 13.7393 58.6514 13.7393 53.499V32.9062C13.7393 30.9888 15.0752 29.3784 16.8643 28.9541V46.6875C16.8643 47.2056 17.2842 47.625 17.8018 47.625C18.3198 47.625 18.7393 47.2056 18.7393 46.6875V28.9541C20.5288 29.3784 21.8643 30.9888 21.8643 32.9062V52.5303C21.8643 53.7368 22.8457 54.7178 24.0518 54.7178H26.6768V57.8428H23.2856C20.7788 57.8428 18.7393 55.8037 18.7393 53.2964V50.0518C18.7393 49.5337 18.3198 49.1143 17.8018 49.1143C17.2842 49.1143 16.8643 49.5337 16.8643 50.0518V53.2964C16.8643 56.8374 19.7451 59.7178 23.2856 59.7178H26.6768V62.8428H23.083ZM28.5518 69.8125V21.4375C28.5518 17.6509 30.3813 14.2837 33.2026 12.1733C33.29 12.1294 33.3726 12.0718 33.4453 11.999C33.4468 11.9976 33.4482 11.9956 33.4497 11.9941C33.9023 11.6738 34.3794 11.3848 34.8774 11.1309C34.4238 11.9697 34.166 12.9292 34.166 13.9482V40.1875H32.2393C31.7217 40.1875 31.3018 40.6069 31.3018 41.125C31.3018 41.6431 31.7217 42.0625 32.2393 42.0625H34.166V70.125H28.8643C28.6919 70.125 28.5518 69.9849 28.5518 69.8125ZM51.6768 69.8125C51.6768 69.9849 51.5366 70.125 51.3643 70.125H46.0625V62.479H47.9893C48.5073 62.479 48.9268 62.0596 48.9268 61.5415C48.9268 61.0239 48.5073 60.604 47.9893 60.604H46.0625V42.8628C46.0625 42.3452 45.6431 41.9253 45.125 41.9253C44.6069 41.9253 44.1875 42.3452 44.1875 42.8628V49.9375H42.2607C41.7427 49.9375 41.3232 50.3569 41.3232 50.875C41.3232 51.3931 41.7427 51.8125 42.2607 51.8125H44.1875V70.125H36.041V58.3125H37.9893C38.5073 58.3125 38.9268 57.8931 38.9268 57.375C38.9268 56.8569 38.5073 56.4375 37.9893 56.4375H36.041V32.146H37.9893C38.5073 32.146 38.9268 31.7261 38.9268 31.2085C38.9268 30.6904 38.5073 30.271 37.9893 30.271H36.041V13.9482C36.041 11.7021 37.8687 9.875 40.1143 9.875C42.3604 9.875 44.1875 11.7021 44.1875 13.9482V39.375C44.1875 39.8931 44.6069 40.3125 45.125 40.3125C45.6431 40.3125 46.0625 39.8931 46.0625 39.375V23.229H47.9893C48.5073 23.229 48.9268 22.8096 48.9268 22.2915C48.9268 21.7739 48.5073 21.354 47.9893 21.354H46.0625V13.9482C46.0625 12.9292 45.8047 11.9697 45.3516 11.1309C49.1021 13.0444 51.6768 16.9458 51.6768 21.4375V69.8125ZM66.4893 34.7188C66.4893 39.8711 62.2979 44.0625 57.1455 44.0625H53.5518V40.9375H56.9429C60.4834 40.9375 63.3643 38.0566 63.3643 34.5161V21.0479C65.1538 21.4722 66.4893 23.0825 66.4893 25V34.7188Z" fill="#0E8792"/>
</g>
</svg>
