<svg width="80" height="80" viewBox="0 0 80 80" fill="none" xmlns="http://www.w3.org/2000/svg">
<g id="ico-storage">
<g id="Vector">
<path d="M71.4736 26.2802L40.54 8.14664C40.2146 7.95676 39.8146 7.95038 39.4851 8.13276L8.5515 25.1996C8.21125 25.3863 8 25.7446 8 26.1329V70.9332C8 71.5231 8.47788 71.9999 9.06663 71.9999H14.4C14.9888 71.9999 15.4667 71.5231 15.4667 70.9332V33.5997H64.5337V70.9334C64.5337 71.5233 65.0104 72 65.6003 72H70.9337C71.5236 72 72.0004 71.5233 72.0004 70.9334V27.1997C72.0005 26.8209 71.8 26.471 71.4736 26.2802ZM69.8671 69.8666H66.6671V32.5329C66.6671 31.9442 66.1903 31.4663 65.6004 31.4663H14.4C13.8113 31.4663 13.3334 31.9442 13.3334 32.5329V69.8666H10.1334V26.7623L39.9842 10.2928L69.8671 27.8108V69.8666Z" fill="#0E8792"/>
<path d="M61.3338 57.0665H48.5337C47.9438 57.0665 47.4671 57.5433 47.4671 58.1331V70.9332C47.4671 71.5231 47.9438 71.9999 48.5337 71.9999H61.3338C61.9237 71.9999 62.4004 71.5231 62.4004 70.9332V58.1331C62.4004 57.5433 61.9237 57.0665 61.3338 57.0665ZM60.267 69.8666H49.6003V59.1999H60.267V69.8666Z" fill="#0E8792"/>
<path d="M56.0004 58.1331V61.3332H53.867V58.1331H51.7336V62.3998C51.7336 62.9897 52.2103 63.4664 52.8002 63.4664H57.0669C57.6568 63.4664 58.1335 62.9897 58.1335 62.3998V58.1331H56.0004Z" fill="#0E8792"/>
<path d="M48.5337 57.0665H35.7336C35.1448 57.0665 34.667 57.5433 34.667 58.1331V70.9332C34.667 71.5231 35.1448 71.9999 35.7336 71.9999H48.5337C49.1236 71.9999 49.6003 71.5231 49.6003 70.9332V58.1331C49.6003 57.5433 49.1236 57.0665 48.5337 57.0665ZM47.4669 69.8666H36.8002V59.1999H47.4669V69.8666Z" fill="#0E8792"/>
<path d="M43.2003 58.1331V61.3332H41.0669V58.1331H38.9335V62.3998C38.9335 62.9897 39.4114 63.4664 40.0001 63.4664H44.2668C44.8567 63.4664 45.3334 62.9897 45.3334 62.3998V58.1331H43.2003Z" fill="#0E8792"/>
<path d="M61.3338 44.2664H48.5337C47.9438 44.2664 47.4671 44.7432 47.4671 45.333V58.1331C47.4671 58.723 47.9438 59.1998 48.5337 59.1998H61.3338C61.9237 59.1998 62.4004 58.723 62.4004 58.1331V45.333C62.4004 44.7432 61.9237 44.2664 61.3338 44.2664ZM60.267 57.0665H49.6003V46.3998H60.267V57.0665Z" fill="#0E8792"/>
<path d="M56.0004 45.333V48.5331H53.867V45.333H51.7336V49.5997C51.7336 50.1896 52.2103 50.6663 52.8002 50.6663H57.0669C57.6568 50.6663 58.1335 50.1896 58.1335 49.5997V45.333H56.0004Z" fill="#0E8792"/>
<path d="M65.6004 39.9998H14.4V42.1331H65.6004V39.9998Z" fill="#0E8792"/>
<path d="M65.6004 35.733H14.4V37.8664H65.6004V35.733Z" fill="#0E8792"/>
<path d="M45.3337 22.9329H34.667C34.0782 22.9329 33.6003 23.4108 33.6003 23.9995V28.2662C33.6003 28.8549 34.0782 29.3328 34.667 29.3328H45.3337C45.9235 29.3328 46.4003 28.8549 46.4003 28.2662V23.9995C46.4003 23.4108 45.9235 22.9329 45.3337 22.9329ZM44.2669 27.1997H35.7335V25.0663H44.2669V27.1997Z" fill="#0E8792"/>
</g>
</g>
</svg>
