<svg width="80" height="80" viewBox="0 0 80 80" fill="none" xmlns="http://www.w3.org/2000/svg">
<g id="ico-computer">
<g id="Vector">
<path d="M68.7919 8H11.4149C8.98064 8 7 9.98077 7 12.4149V48.8275C7 49.4365 7.49435 49.9309 8.1034 49.9309H72.1033C72.7123 49.9309 73.2067 49.4365 73.2067 48.8275V12.4149C73.2068 9.98077 71.2262 8 68.7919 8ZM70.9999 47.7241H9.20694V12.4149C9.20694 11.1967 10.1978 10.2069 11.4149 10.2069H68.7919C70.009 10.2069 70.9999 11.1967 70.9999 12.4149V47.7241Z" fill="#0E8792"/>
<path d="M72.1034 47.7241H8.1034C7.49435 47.7241 7 48.2184 7 48.8275V54.3436C7 56.7779 8.98064 58.7585 11.4149 58.7585H68.7919C71.2262 58.7585 73.2068 56.7779 73.2068 54.3436V48.8275C73.2068 48.2184 72.7124 47.7241 72.1034 47.7241ZM70.9999 54.3437C70.9999 55.562 70.009 56.5517 68.7919 56.5517H11.4149C10.1978 56.5517 9.20694 55.562 9.20694 54.3437V49.931H71L70.9999 54.3437Z" fill="#0E8792"/>
<path d="M43.4137 52.138H36.7931C36.184 52.138 35.6897 52.6323 35.6897 53.2414C35.6897 53.8504 36.184 54.3448 36.7931 54.3448H43.4137C44.0228 54.3448 44.5171 53.8504 44.5171 53.2414C44.5171 52.6323 44.0228 52.138 43.4137 52.138Z" fill="#0E8792"/>
<path d="M67.6895 12.4139H12.5173C11.9082 12.4139 11.4139 12.9082 11.4139 13.5173V48.8276C11.4139 49.4367 11.9082 49.931 12.5173 49.931H67.6897C68.2987 49.931 68.7931 49.4367 68.7931 48.8276V13.5173C68.7931 12.9082 68.2987 12.4139 67.6895 12.4139ZM66.5861 47.7241H13.6207V14.6207H66.5861V47.7241Z" fill="#0E8792"/>
<path d="M54.4482 65.3793H25.7586C23.9336 65.3793 22.4483 66.8646 22.4483 68.6897C22.4483 70.5147 23.9336 72 25.7586 72H54.4483C56.2734 72 57.7586 70.5147 57.7586 68.6897C57.7586 66.8646 56.2733 65.3793 54.4482 65.3793ZM54.4482 69.7931H25.7586C25.1496 69.7931 24.6552 69.2977 24.6552 68.6897C24.6552 68.0816 25.1496 67.5863 25.7586 67.5863H54.4483C55.0573 67.5863 55.5517 68.0816 55.5517 68.6897C55.5517 69.2977 55.0573 69.7931 54.4482 69.7931Z" fill="#0E8792"/>
<path d="M52.2414 65.3793C48.5801 65.3793 46.7241 62.7807 46.7241 57.6552C46.7241 57.0462 46.2297 56.5518 45.6207 56.5518H34.5863C33.9772 56.5518 33.4828 57.0462 33.4828 57.6552C33.4828 62.7807 31.6269 65.3793 27.9656 65.3793C27.3565 65.3793 26.8622 65.8737 26.8622 66.4827C26.8622 67.0918 27.3565 67.5861 27.9656 67.5861H52.2414C52.8504 67.5861 53.3448 67.0918 53.3448 66.4827C53.3448 65.8737 52.8504 65.3793 52.2414 65.3793ZM33.3404 65.3793C34.6988 63.8743 35.4987 61.6331 35.6598 58.7586H44.548C44.708 61.6331 45.508 63.8743 46.8675 65.3793H33.3404Z" fill="#0E8792"/>
<path d="M59.7271 40.5119L57.0635 37.8483L58.5454 36.3664C58.8201 36.0916 58.9304 35.6922 58.8355 35.3159C58.7406 34.9396 58.4548 34.6416 58.0829 34.5291L47.0485 31.2188C46.659 31.1018 46.2387 31.2088 45.9517 31.4958C45.6637 31.7827 45.5578 32.2041 45.6747 32.5926L48.9851 43.627C49.0965 44 49.3955 44.2857 49.7718 44.3806C50.1469 44.4734 50.5475 44.3651 50.8223 44.0905L52.3826 42.529L55.0462 45.1939C55.2526 45.4013 55.534 45.5171 55.8264 45.5171C56.1187 45.5171 56.4001 45.4013 56.6065 45.1939L59.727 42.0722C60.1585 41.6408 60.1585 40.9434 59.7271 40.5119ZM55.8264 42.8535L53.401 40.427C53.1196 40.1456 52.7511 40.0054 52.3826 40.0054C52.0129 40.0054 51.6443 40.1466 51.3641 40.4258L50.5674 41.2225L48.3771 33.921L55.6786 36.1114L54.8245 36.9655C54.5894 37.2016 54.4603 37.515 54.4603 37.8483C54.4603 38.1827 54.5905 38.4982 54.8267 38.7321L57.3866 41.2921L55.8264 42.8535Z" fill="#0E8792"/>
<path d="M53.3448 16.8276H22.4483C21.8392 16.8276 21.3449 17.322 21.3449 17.931V23.4483C21.3449 24.0573 21.8392 24.5517 22.4483 24.5517H53.3448C53.9538 24.5517 54.4482 24.0573 54.4482 23.4483V17.931C54.4482 17.322 53.9538 16.8276 53.3448 16.8276ZM52.2414 22.3449H23.5517V19.0346H52.2414V22.3449Z" fill="#0E8792"/>
<path d="M35.6897 28.9656H26.862C26.253 28.9656 25.7586 29.4599 25.7586 30.069V34.4827C25.7586 35.0918 26.253 35.5861 26.862 35.5861H35.6897C36.2987 35.5861 36.7931 35.0918 36.7931 34.4827V30.069C36.7931 29.4599 36.2987 28.9656 35.6897 28.9656ZM34.5861 33.3793H27.9654V31.1724H34.5861V33.3793Z" fill="#0E8792"/>
<path d="M53.3448 16.8276H22.4483C21.8392 16.8276 21.3449 17.322 21.3449 17.931V38.8965C21.3449 39.5055 21.8392 39.9999 22.4483 39.9999H48.717C49.0668 39.9999 49.3945 39.8355 49.602 39.5552C49.8106 39.275 49.8746 38.913 49.7741 38.5786L48.3772 33.921L53.0282 35.3169C53.3626 35.4174 53.7245 35.3534 54.0036 35.1448C54.2838 34.9374 54.4483 34.6085 54.4483 34.2598L54.4482 17.931C54.448 17.322 53.9538 16.8276 53.3448 16.8276ZM52.2414 32.7769L47.0474 31.2188C46.6579 31.1018 46.2375 31.2088 45.9505 31.4958C45.6626 31.7838 45.5567 32.2041 45.6736 32.5938L47.2338 37.7932H23.5517V19.0346H52.2414V32.7769Z" fill="#0E8792"/>
</g>
</g>
</svg>
