<svg width="80" height="80" viewBox="0 0 80 80" fill="none" xmlns="http://www.w3.org/2000/svg">
<g id="ico-customer-service">
<g id="Vector">
<path d="M53.5 57.5C52.81 57.5 52.25 58.06 52.25 58.75C52.25 59.44 52.81 60 53.5 60C54.19 60 54.75 59.44 54.75 58.75C54.75 58.06 54.19 57.5 53.5 57.5Z" fill="#0E8792"/>
<path d="M56.5778 53.4579L50.6365 51.4779L48.5036 47.212C50.4251 45.2563 51.7593 42.6685 52.2091 39.9694L52.4751 38.375H54.75C56.8177 38.375 58.5 36.6928 58.5 34.625V26.75C58.5 16.4113 50.0887 8 39.75 8C29.3848 8 21 16.3871 21 26.75V34.625C21 36.2545 22.0451 37.644 23.5 38.16V39.625C23.5 41.6927 25.1823 43.375 27.25 43.375H28.3477C28.8896 44.5521 29.591 45.6424 30.4445 46.6217C30.6215 46.8252 30.8061 47.0225 30.9953 47.2144L28.8635 51.4779L22.9221 53.458C16.014 55.7615 11 63.0339 11 70.75C11 71.4404 11.5596 72 12.25 72H67.25C67.9403 72 68.5 71.4404 68.5 70.75C68.5 63.0339 63.4861 55.7615 56.5778 53.4579ZM56 34.625C56 35.3143 55.4393 35.875 54.75 35.875H52.8423C53.16 33.4137 53.3717 30.7946 53.4569 28.215C53.4594 28.1423 53.4614 28.0715 53.4636 28H56V34.625ZM24.75 35.875C24.0608 35.875 23.5 35.3143 23.5 34.625V28H26.0372C26.0414 28.1304 26.0458 28.2614 26.0506 28.3932C26.0508 28.3977 26.051 28.4021 26.0511 28.4066C26.0511 28.407 26.0511 28.4074 26.0511 28.4077C26.1386 30.9167 26.3476 33.4679 26.6581 35.8749L24.75 35.875ZM27.25 40.875C26.5608 40.875 26 40.3143 26 39.625V38.375H27.0247L27.2908 39.9699C27.3415 40.273 27.4039 40.575 27.476 40.875H27.25ZM26.0021 25.5H23.5475C24.1806 17.1224 31.1721 10.5 39.75 10.5C48.2897 10.5 55.312 17.1215 55.9524 25.5H53.498C53.408 18.5966 47.7864 13 40.8689 13H38.6314C31.714 13 26.092 18.5966 26.0021 25.5ZM38.6313 15.5H40.8687C46.4699 15.5 51.0033 20.0814 51 25.6763C51 26.0696 50.9969 26.4121 50.9902 26.7237C50.9902 26.7277 50.9901 26.7319 50.9901 26.736L49.4266 26.5126C45.1791 25.9061 41.1686 23.9009 38.1339 20.8661C37.8994 20.6318 37.5815 20.5 37.25 20.5C33.893 20.5 30.6795 22.0295 28.5553 24.6135C29.0788 19.5236 33.3816 15.5 38.6313 15.5ZM30.0675 40.875C29.4417 38.7934 28.7257 32.6684 28.5675 28.7434L30.2499 26.5001C31.795 24.4406 34.1989 23.161 36.756 23.0141C40.1206 26.2161 44.4734 28.3306 49.0731 28.9874L50.9134 29.2504C50.7904 31.861 50.539 34.4807 50.1789 36.8901C50.1788 36.8909 50.1786 36.8918 50.1785 36.8926C50.064 37.6673 49.9738 38.1657 49.7433 39.5581C49.0813 43.5287 46.1185 47.1194 42.2074 48.0973C40.5977 48.4991 38.902 48.499 37.2932 48.0973C34.8511 47.4868 32.6119 45.797 31.1667 43.375H33.715C34.231 44.8299 35.6204 45.875 37.25 45.875H39.75C41.8219 45.875 43.5 44.197 43.5 42.125C43.5 40.0573 41.8178 38.375 39.75 38.375H37.25C35.5841 38.375 34.2153 39.451 33.7129 40.875H30.0675ZM37.1449 50.627C38.0022 50.8076 38.8764 50.9 39.75 50.9C40.4339 50.9 41.1179 50.8428 41.7941 50.7318L39.5854 53.0676L37.1449 50.627ZM37.8669 54.8849L33.9021 59.0776C32.8106 56.9884 31.8728 54.814 31.1035 52.588L32.5924 49.6102L37.8669 54.8849ZM46.6958 49.1867L48.3963 52.5879C47.6258 54.8176 46.6876 56.9927 45.5973 59.0795L41.3537 54.836L46.6958 49.1867ZM36 42.125C36 41.4349 36.5597 40.875 37.25 40.875H39.75C40.4393 40.875 41 41.4357 41 42.125C41 42.8153 40.4401 43.375 39.75 43.375H37.25C36.5608 43.375 36 42.8143 36 42.125ZM13.55 69.5C14.0454 63.3076 18.1665 57.6791 23.7128 55.8296L28.9745 54.0761C29.9385 56.7418 31.1328 59.3326 32.5324 61.7936C32.5348 61.7979 32.537 61.8021 32.5394 61.8063C33.562 63.6049 34.7131 65.3628 35.961 67.0314L37.4988 69.5H13.55ZM39.75 68.3857L38.0548 65.6641C38.0358 65.6336 38.0155 65.604 37.994 65.5753C36.9818 64.225 36.0375 62.8129 35.1775 61.3675L39.6354 56.6533L44.3326 61.3505C43.4669 62.8064 42.5194 64.2244 41.5063 65.575C41.445 65.6566 41.5319 65.528 39.75 68.3857ZM42.0013 69.5L43.5389 67.0315C44.7923 65.3565 45.9515 63.5848 46.9844 61.765C46.9906 61.754 46.9965 61.7428 47.0028 61.7318C47.0035 61.7304 47.0043 61.7291 47.005 61.7277C48.3869 59.2902 49.5686 56.7219 50.5255 54.0761L55.7871 55.8296C61.3335 57.6791 65.4546 63.3076 65.95 69.5H42.0013Z" fill="#0E8792"/>
<path d="M62.1932 64.4414C61.3579 62.7693 60.1343 61.2838 58.6546 60.1455C58.1074 59.7244 57.3226 59.8268 56.9017 60.374C56.4808 60.9212 56.5831 61.706 57.1302 62.127C58.312 63.0361 59.2892 64.2228 59.9566 65.5586C60.2658 66.1772 61.017 66.4263 61.6335 66.1183C62.251 65.8097 62.5016 65.059 62.1932 64.4414Z" fill="#0E8792"/>
</g>
</g>
</svg>
