<svg width="80" height="80" viewBox="0 0 80 80" fill="none" xmlns="http://www.w3.org/2000/svg">
<g id="ico-customer">
<path id="Vector" d="M40.0129 21.2802C38.5731 21.2802 37.1656 20.8533 35.9684 20.0533C34.7712 19.2534 33.8381 18.1164 33.2871 16.7862C32.7361 15.4559 32.5919 13.9921 32.8728 12.58C33.1537 11.1678 33.8471 9.87061 34.8652 8.85248C35.8833 7.83435 37.1805 7.141 38.5927 6.8601C40.0048 6.5792 41.4686 6.72337 42.7988 7.27438C44.1291 7.82538 45.2661 8.75848 46.066 9.95567C46.8659 11.1529 47.2929 12.5604 47.2929 14.0002C47.2904 15.9302 46.5226 17.7804 45.1578 19.1452C43.7931 20.5099 41.9429 21.2777 40.0129 21.2802ZM40.0129 9.28022C39.0794 9.28022 38.1668 9.55704 37.3906 10.0757C36.6144 10.5943 36.0094 11.3315 35.6522 12.194C35.295 13.0564 35.2015 14.0055 35.3836 14.921C35.5657 15.8366 36.0153 16.6777 36.6754 17.3378C37.3355 17.9979 38.1765 18.4474 39.0921 18.6295C40.0077 18.8116 40.9567 18.7182 41.8192 18.3609C42.6816 18.0037 43.4188 17.3987 43.9375 16.6225C44.4561 15.8463 44.7329 14.9337 44.7329 14.0002C44.7312 12.7489 44.2334 11.5493 43.3486 10.6645C42.4638 9.77974 41.2642 9.28191 40.0129 9.28022Z" fill="#0E8792"/>
<path id="Vector_2" d="M53.228 42.725H26.8C26.4605 42.725 26.135 42.5901 25.8949 42.3501C25.6549 42.11 25.52 41.7845 25.52 41.445V34.0602C25.52 28.3114 30.1976 23.6338 35.9464 23.6338H44.08C49.8288 23.6338 54.5064 28.3114 54.5064 34.0602V41.445C54.5064 41.7842 54.3718 42.1095 54.1321 42.3495C53.8924 42.5895 53.5672 42.7246 53.228 42.725ZM28.08 40.165H51.948V34.0602C51.9457 31.9743 51.1159 29.9746 49.6409 28.4998C48.1658 27.025 46.1659 26.1957 44.08 26.1938H35.944C33.8589 26.1968 31.86 27.0266 30.3858 28.5012C28.9115 29.9759 28.0823 31.975 28.08 34.0602V40.165Z" fill="#0E8792"/>
<path id="Vector_3" d="M48.32 42.7247C47.9806 42.7247 47.655 42.5899 47.4149 42.3498C47.1749 42.1098 47.04 41.7842 47.04 41.4447V35.8327C47.04 35.4933 47.1749 35.1677 47.4149 34.9276C47.655 34.6876 47.9806 34.5527 48.32 34.5527C48.6595 34.5527 48.9851 34.6876 49.2251 34.9276C49.4652 35.1677 49.6 35.4933 49.6 35.8327V41.4447C49.6 41.7842 49.4652 42.1098 49.2251 42.3498C48.9851 42.5899 48.6595 42.7247 48.32 42.7247Z" fill="#0E8792"/>
<path id="Vector_4" d="M31.708 42.7247C31.3685 42.7247 31.0429 42.5899 30.8029 42.3498C30.5628 42.1098 30.428 41.7842 30.428 41.4447V35.8327C30.428 35.4933 30.5628 35.1677 30.8029 34.9276C31.0429 34.6876 31.3685 34.5527 31.708 34.5527C32.0475 34.5527 32.373 34.6876 32.6131 34.9276C32.8531 35.1677 32.988 35.4933 32.988 35.8327V41.4447C32.988 41.7842 32.8531 42.1098 32.6131 42.3498C32.373 42.5899 32.0475 42.7247 31.708 42.7247Z" fill="#0E8792"/>
<path id="Vector_5" d="M48.7017 62.5232H34.3417C34.0022 62.5232 33.6767 62.3883 33.4366 62.1483C33.1966 61.9083 33.0617 61.5827 33.0617 61.2432C33.0617 60.9037 33.1966 60.5782 33.4366 60.3381C33.6767 60.0981 34.0022 59.9632 34.3417 59.9632H48.7017C49.4309 59.9508 50.1261 59.6525 50.6375 59.1324C51.1488 58.6123 51.4353 57.9122 51.4353 57.1828C51.4353 56.4535 51.1488 55.7533 50.6375 55.2332C50.1261 54.7131 49.4309 54.4148 48.7017 54.4024H34.3065C34.1857 54.4024 31.3089 54.3024 27.7169 52.7464L27.4913 52.648C24.1505 51.1824 21.6961 50.4344 20.1969 50.4248C17.7793 50.4096 15.7073 50.9048 14.0449 51.8904C13.9004 51.9783 13.7399 52.0367 13.5727 52.0622C13.4054 52.0878 13.2348 52.0799 13.0707 52.039C12.9065 51.9982 12.7521 51.9252 12.6163 51.8244C12.4805 51.7235 12.366 51.5967 12.2796 51.4513C12.1931 51.3059 12.1363 51.1449 12.1124 50.9774C12.0885 50.8099 12.0981 50.6394 12.1406 50.4756C12.183 50.3119 12.2575 50.1582 12.3597 50.0234C12.462 49.8886 12.5899 49.7754 12.7361 49.6904C14.8049 48.46 17.3185 47.8432 20.2137 47.8648C22.7121 47.8816 26.1505 49.2648 28.5193 50.3032L28.7353 50.3976C31.7265 51.6936 34.1617 51.8328 34.3665 51.8424H48.7017C50.1067 51.8596 51.4484 52.4298 52.4359 53.4295C53.4234 54.4291 53.9771 55.7777 53.9771 57.1828C53.9771 58.588 53.4234 59.9365 52.4359 60.9361C51.4484 61.9358 50.1067 62.506 48.7017 62.5232Z" fill="#0E8792"/>
<path id="Vector_6" d="M39.8928 73.2799C39.2853 73.2799 38.6747 73.2514 38.0608 73.1943C35.9294 72.9886 33.8452 72.4399 31.8888 71.5695L26.5752 69.2271C24.9575 68.5117 23.2986 67.8936 21.6072 67.3759C20.4024 67.0095 19.7672 66.8783 19.4472 66.8327C16.8528 66.4631 14.864 66.4719 13.8472 66.8583C13.6532 66.932 13.4441 66.9574 13.2381 66.9323C13.032 66.9072 12.8352 66.8324 12.6645 66.7143C12.4938 66.5962 12.3544 66.4384 12.2583 66.2544C12.1622 66.0705 12.1123 65.8659 12.1128 65.6583V50.7135C12.1128 50.374 12.2477 50.0485 12.4877 49.8084C12.7277 49.5684 13.0533 49.4335 13.3928 49.4335C13.7323 49.4335 14.0578 49.5684 14.2979 49.8084C14.5379 50.0485 14.6728 50.374 14.6728 50.7135V64.0799C16.02 63.9311 17.7376 64.0047 19.8088 64.2999C20.4144 64.3855 21.2488 64.5911 22.3536 64.9279C24.1432 65.4751 25.8983 66.129 27.6096 66.8863L32.924 69.2279C34.6283 69.9878 36.4443 70.4671 38.3016 70.6471C39.6924 70.7802 41.0945 70.7366 42.4744 70.5175C44.228 70.2343 46.8096 69.3623 47.7808 69.0343L47.9464 68.9783C57.652 65.7247 66.4424 56.9783 69.7712 53.3783C70.1654 52.9591 70.45 52.4491 70.5997 51.8936C70.7495 51.338 70.7597 50.754 70.6296 50.1935C70.4552 49.4663 70.0104 48.4831 68.1752 48.3335C67.3429 48.2695 66.515 48.5041 65.84 48.9951L53.5064 57.8983C53.3703 58.0002 53.2154 58.0739 53.0505 58.1152C52.8857 58.1565 52.7143 58.1646 52.5463 58.139C52.3783 58.1133 52.217 58.0545 52.072 57.9659C51.927 57.8773 51.8011 57.7607 51.7016 57.6229C51.6021 57.4852 51.531 57.3289 51.4926 57.1634C51.4541 56.9979 51.449 56.8263 51.4775 56.6588C51.506 56.4913 51.5676 56.3311 51.6587 56.1876C51.7498 56.0441 51.8685 55.9202 52.008 55.8231L64.3424 46.9199C65.51 46.0707 66.9422 45.6657 68.3816 45.7775C70.8928 45.9823 72.5744 47.3367 73.116 49.5895C73.3451 50.5592 73.3311 51.5705 73.0752 52.5335C72.8194 53.4965 72.3297 54.3813 71.6496 55.1095C68.1872 58.8623 59.0256 67.9615 48.7584 71.4039L48.5984 71.4583C47.5712 71.8047 44.8432 72.7263 42.88 73.0399C41.8922 73.1994 40.8933 73.2796 39.8928 73.2799Z" fill="#0E8792"/>
<path id="Vector_7" d="M10.7112 70.8855C9.6531 70.8845 8.63866 70.4637 7.89042 69.7157C7.14218 68.9676 6.72124 67.9532 6.71997 66.8951V48.8639C6.71997 47.8056 7.14039 46.7906 7.88873 46.0423C8.63708 45.294 9.65205 44.8735 10.7104 44.8735C11.7687 44.8735 12.7837 45.294 13.532 46.0423C14.2804 46.7906 14.7008 47.8056 14.7008 48.8639V66.8951C14.6997 67.953 14.2791 68.9672 13.5311 69.7153C12.7832 70.4634 11.769 70.8843 10.7112 70.8855ZM10.7112 47.4343C10.3319 47.4345 9.96827 47.5852 9.69996 47.8532C9.43165 48.1212 9.28061 48.4847 9.27997 48.8639V66.8951C9.27997 67.2745 9.43067 67.6383 9.69893 67.9066C9.96718 68.1748 10.331 68.3255 10.7104 68.3255C11.0897 68.3255 11.4536 68.1748 11.7218 67.9066C11.9901 67.6383 12.1408 67.2745 12.1408 66.8951V48.8639C12.1403 48.4849 11.9896 48.1215 11.7216 47.8535C11.4536 47.5855 11.0902 47.4348 10.7112 47.4343Z" fill="#0E8792"/>
</g>
</svg>
