<svg width="80" height="80" viewBox="0 0 80 80" fill="none" xmlns="http://www.w3.org/2000/svg">
<g id="ico-staff">
<g id="Vector">
<path fill-rule="evenodd" clip-rule="evenodd" d="M38.6773 9.25903C39.2228 7.58033 41.5977 7.58032 42.1431 9.25903L43.7243 14.1253C43.7591 14.2326 43.8591 14.3052 43.9719 14.3052H49.0886C50.8537 14.3052 51.5876 16.5639 50.1596 17.6014L46.0201 20.6089C45.9288 20.6752 45.8907 20.7927 45.9255 20.8999L47.5067 25.7662C48.0521 27.4449 46.1307 28.8409 44.7027 27.8034L40.5632 24.7959C40.472 24.7296 40.3485 24.7296 40.2572 24.7959L36.1177 27.8034C34.6897 28.8409 32.7684 27.4449 33.3138 25.7662L34.895 20.8999C34.9298 20.7927 34.8916 20.6752 34.8004 20.6089L30.6609 17.6014C29.2329 16.5639 29.9668 14.3052 31.7319 14.3052H36.8486C36.9614 14.3052 37.0613 14.2326 37.0962 14.1253L38.6773 9.25903ZM40.6578 9.74165C40.5799 9.50184 40.2406 9.50184 40.1627 9.74165L38.5815 14.6079C38.3376 15.3587 37.638 15.867 36.8486 15.867H31.7319C31.4797 15.867 31.3749 16.1896 31.5789 16.3379L35.7184 19.3454C36.357 19.8094 36.6242 20.6318 36.3803 21.3826L34.7992 26.2488C34.7212 26.4887 34.9957 26.6881 35.1997 26.5399L39.3392 23.5323C39.9779 23.0684 40.8426 23.0684 41.4812 23.5323L45.6207 26.5399C45.8247 26.6881 46.0992 26.4887 46.0213 26.2488L44.4401 21.3826C44.1962 20.6318 44.4634 19.8094 45.1021 19.3454L49.2416 16.3379C49.4456 16.1897 49.3407 15.867 49.0886 15.867H43.9719C43.1825 15.867 42.4829 15.3587 42.2389 14.6079L40.6578 9.74165Z" fill="#0E8792"/>
<path d="M51.7993 53.3808L46.1271 50.8598C45.7264 50.6818 45.4676 50.2834 45.4676 49.845V48.2874C47.373 46.7692 48.5977 44.4313 48.5977 41.8114V39.6188C49.2254 39.272 49.641 38.6017 49.641 37.851V37.6382C49.641 33.0731 45.9269 29.359 41.3618 29.359H39.2753C34.7101 29.359 30.9961 33.0731 30.9961 37.6382V39.569C30.9961 40.2288 31.28 40.8266 31.775 41.2091C31.8589 41.2739 31.9473 41.3309 32.0393 41.3802V41.8113C32.0393 44.4312 33.2639 46.7691 35.1692 48.2871V49.8449C35.1692 50.2833 34.9103 50.6816 34.5097 50.8597L28.8375 53.3807C26.9799 54.2062 25.7795 56.0533 25.7795 58.0861V71.0235C25.7795 71.5626 26.2166 71.9996 26.7557 71.9996C27.2947 71.9996 27.7318 71.5626 27.7318 71.0235V58.0862C27.7318 57.9731 27.7398 57.8613 27.7516 57.7505L30.3652 60.3641C30.7719 60.771 30.9961 61.3117 30.9961 61.8871V71.0236C30.9961 71.5627 31.4331 71.9997 31.9722 71.9997C32.5113 71.9997 32.9483 71.5627 32.9483 71.0236V61.8871C32.9483 60.7904 32.5213 59.7593 31.7457 58.9837L28.6298 55.8677C28.9105 55.5764 29.2474 55.335 29.6305 55.1646L35.207 52.6862L39.3425 56.8217V71.0235C39.3425 71.5626 39.7796 71.9996 40.3187 71.9996C40.8577 71.9996 41.2948 71.5626 41.2948 71.0235V56.8218L45.4303 52.6863L51.0067 55.1646C51.3898 55.335 51.7267 55.5764 52.0074 55.8678L48.8915 58.9837C48.1159 59.7593 47.6889 60.7904 47.6889 61.8871V71.0236C47.6889 71.5627 48.1259 71.9997 48.665 71.9997C49.2041 71.9997 49.6411 71.5627 49.6411 71.0236V61.8871C49.6411 61.3119 49.8651 60.771 50.272 60.3641L52.8855 57.7506C52.8972 57.8615 52.9053 57.973 52.9053 58.0861V71.0235C52.9053 71.5626 53.3423 71.9996 53.8814 71.9996C54.4205 71.9996 54.8575 71.5626 54.8575 71.0235V58.0862C54.8572 56.0534 53.6569 54.2064 51.7993 53.3808ZM40.3183 55.0371L36.6896 51.4083C36.9655 50.944 37.1213 50.4069 37.1213 49.845V49.4478C38.1056 49.8614 39.1857 50.0906 40.3184 50.0906C41.4511 50.0906 42.5311 49.8616 43.5153 49.448V49.845C43.5153 50.407 43.6711 50.944 43.9471 51.4084L40.3183 55.0371ZM40.3184 48.1383C36.8298 48.1384 33.9914 45.3001 33.9914 41.8114V41.3724C34.6005 41.131 35.1951 40.7468 35.7642 40.2217C36.1603 39.8561 36.1851 39.2385 35.8194 38.8423C35.4538 38.4463 34.8364 38.4214 34.4401 38.787C33.9519 39.2377 33.4641 39.5289 32.9906 39.6525C32.9791 39.6555 32.9707 39.6568 32.9647 39.6573C32.9577 39.6437 32.9482 39.615 32.9482 39.5691V37.6383C32.9482 34.1497 35.7865 31.3114 39.2751 31.3114H41.3617C44.8505 31.3114 47.6886 34.1497 47.6886 37.6383V37.8511C47.6886 37.8827 47.6696 37.9102 47.6446 37.9151C41.7995 39.0696 38.8678 36.8939 37.8786 35.9047C37.4974 35.5235 36.8793 35.5235 36.4983 35.9047C36.1171 36.2859 36.1171 36.904 36.4983 37.2851C39.5294 40.3163 43.9526 40.3709 46.6454 40.0474V41.8113C46.6454 45.3 43.8071 48.1383 40.3184 48.1383Z" fill="#0E8792"/>
<path d="M24.6017 48.0715V45.9845C24.6017 43.438 23.2783 41.1963 21.2843 39.9063C21.4074 39.5113 21.4717 39.0976 21.4717 38.6815C21.4717 36.4174 19.6298 34.5755 17.3658 34.5755C15.1017 34.5755 13.2598 36.4175 13.2598 38.6815C13.2598 39.1028 13.3236 39.5125 13.447 39.9066C11.4531 41.1965 10.1298 43.4382 10.1298 45.9845V48.0711C10.1298 50.537 11.3706 52.7176 13.2597 54.0245V56.1711C13.2597 56.5945 13.0245 56.975 12.6459 57.1644L9.26968 58.8524C7.86966 59.5526 7 60.9598 7 62.5251V71.0237C7 71.5628 7.43704 71.9999 7.97612 71.9999C8.5152 71.9999 8.95224 71.5628 8.95224 71.0237V62.9473L10.5424 64.5375C10.9491 64.9443 11.1732 65.4851 11.1732 66.0605V71.0237C11.1732 71.5628 11.6103 71.9999 12.1494 71.9999C12.6884 71.9999 13.1255 71.5628 13.1255 71.0237V66.0605C13.1255 64.9637 12.6983 63.9327 11.9229 63.1571L9.70971 60.9439C9.69904 60.9333 9.68759 60.924 9.67666 60.914C9.81552 60.7914 9.97131 60.6847 10.1429 60.5988L13.5191 58.9107C13.692 58.8242 13.853 58.722 14.0031 58.6085L16.3896 60.9952V71.0239C16.3896 71.563 16.8267 72 17.3658 72C17.9048 72 18.3419 71.563 18.3419 71.0239V60.9951L20.7286 58.6084C20.8788 58.722 21.0396 58.8242 21.2126 58.9106L22.1435 59.3762C22.2837 59.4463 22.4326 59.4795 22.5794 59.4795C22.9375 59.4795 23.2822 59.2817 23.4532 58.9398C23.6944 58.4576 23.4989 57.8712 23.0167 57.6302L22.0858 57.1646C21.707 56.9753 21.4718 56.5947 21.4718 56.1715V54.0249C23.361 52.718 24.6017 50.5373 24.6017 48.0715ZM17.3658 36.5278C18.5534 36.5278 19.5195 37.494 19.5195 38.6815C19.5195 38.8123 19.5078 38.9405 19.4854 39.0661C18.8146 38.8602 18.1031 38.7486 17.3658 38.7486C16.6295 38.7486 15.9189 38.8598 15.2491 39.0651C15.2266 38.9396 15.212 38.812 15.212 38.6815C15.212 37.4939 16.1781 36.5278 17.3658 36.5278ZM17.3658 40.701C20.2792 40.701 22.6494 43.0713 22.6494 45.9847V46.3384C18.5855 47.5827 16.1636 44.4912 16.0601 44.3557C15.8903 44.1294 15.6306 43.9878 15.3484 43.9677C15.0663 43.948 14.7891 44.0512 14.589 44.2512C13.6573 45.183 12.7447 45.6324 12.0856 45.8493C12.1578 42.9983 14.4978 40.701 17.3658 40.701ZM17.3658 59.2102L15.1101 56.9546C15.176 56.7029 15.212 56.4405 15.212 56.1712V54.9797C15.8926 55.1924 16.6161 55.307 17.3658 55.307C18.1154 55.307 18.8389 55.1924 19.5195 54.9797V56.1712C19.5195 56.4405 19.5555 56.703 19.6214 56.9546L17.3658 59.2102ZM17.3658 53.3548C14.4524 53.3548 12.0821 50.9845 12.0821 48.0711V47.8688C12.8605 47.69 14.0147 47.2745 15.2187 46.3061C15.6447 46.708 16.2535 47.2011 17.0288 47.6239C17.9458 48.1241 19.2123 48.5868 20.7593 48.5868C21.3472 48.5868 21.9762 48.5184 22.6411 48.3615C22.4897 51.1404 20.1817 53.3548 17.3658 53.3548Z" fill="#0E8792"/>
<path d="M71.3669 56.766L65.9041 54.0346C65.5255 53.8452 65.2903 53.4646 65.2903 53.0414V51.658C66.569 50.5227 67.3769 48.8683 67.3769 47.028V45.9169C67.3994 45.9169 67.4215 45.9175 67.444 45.9175C67.9831 45.9175 68.4202 45.4805 68.4202 44.9414V42.8548C68.4202 39.4402 65.6421 36.6622 62.2275 36.6622H60.141C56.7264 36.6622 53.9483 39.4402 53.9483 42.8548V44.9414C53.9483 45.4805 54.3854 45.9175 54.9244 45.9175C54.9325 45.9175 54.9559 45.9173 54.9916 45.9158V47.028C54.9916 48.8684 55.7996 50.5229 57.0783 51.6582V53.0415C57.0783 53.4649 56.8431 53.8454 56.4644 54.0347C55.9822 54.2757 55.7867 54.862 56.0278 55.3442C56.1989 55.6863 56.5436 55.8841 56.9017 55.8841C57.0484 55.8841 57.1972 55.8509 57.3374 55.7809C57.5104 55.6944 57.6714 55.5922 57.8214 55.4787L60.2081 57.8654V71.0239C60.2081 71.563 60.6452 72 61.1842 72C61.7233 72 62.1604 71.563 62.1604 71.0239V57.8651L64.5469 55.4784C64.6971 55.592 64.858 55.6942 65.0309 55.7806L70.317 58.4237L68.7136 60.027C67.9382 60.8026 67.5111 61.8336 67.5111 62.9304V71.0236C67.5111 71.5627 67.9481 71.9997 68.4872 71.9997C69.0263 71.9997 69.4633 71.5627 69.4633 71.0236V62.9304C69.4633 62.3551 69.6873 61.8142 70.0941 61.4074L71.6129 59.8887C71.6589 60.0653 71.6842 60.2495 71.6842 60.4384V71.0236C71.6842 71.5627 72.1212 71.9997 72.6603 71.9997C73.1994 71.9997 73.6364 71.5627 73.6364 71.0236V60.4384C73.6366 58.8732 72.7669 57.4661 71.3669 56.766ZM55.9004 43.7645V42.8547C55.9004 40.5166 57.8028 38.6143 60.141 38.6143H62.2275C64.5657 38.6143 66.4679 40.5166 66.4679 42.8547V43.939C62.2247 43.71 59.664 42.0588 59.6391 42.0426C59.4739 41.9325 59.2855 41.8786 59.0979 41.8786C58.846 41.8786 58.5961 41.9759 58.4074 42.1645C57.4734 43.0985 56.5583 43.548 55.9004 43.7645ZM61.1842 56.0804L58.9286 53.8247C58.9945 53.573 59.0305 53.3107 59.0305 53.0414V52.8335C59.7016 53.0833 60.4272 53.2205 61.1842 53.2205C61.9413 53.2205 62.6669 53.0833 63.338 52.8335V53.0414C63.338 53.3107 63.3739 53.573 63.4399 53.8247L61.1842 56.0804ZM61.1842 51.2684C58.8461 51.2684 56.9438 49.3662 56.9438 47.028V45.4543C57.6275 45.1811 58.424 44.7468 59.2346 44.0562C60.2597 44.5896 62.4043 45.5114 65.4246 45.816V47.028C65.4246 49.3661 63.5224 51.2684 61.1842 51.2684Z" fill="#0E8792"/>
<path fill-rule="evenodd" clip-rule="evenodd" d="M38.6773 9.25903C39.2228 7.58033 41.5977 7.58032 42.1431 9.25903L43.7243 14.1253C43.7591 14.2326 43.8591 14.3052 43.9719 14.3052H49.0886C50.8537 14.3052 51.5876 16.5639 50.1596 17.6014L46.0201 20.6089C45.9288 20.6752 45.8907 20.7927 45.9255 20.8999L47.5067 25.7662C48.0521 27.4449 46.1307 28.8409 44.7027 27.8034L40.5632 24.7959C40.472 24.7296 40.3485 24.7296 40.2572 24.7959L36.1177 27.8034C34.6897 28.8409 32.7684 27.4449 33.3138 25.7662L34.895 20.8999C34.9298 20.7927 34.8916 20.6752 34.8004 20.6089L30.6609 17.6014C29.2329 16.5639 29.9668 14.3052 31.7319 14.3052H36.8486C36.9614 14.3052 37.0613 14.2326 37.0962 14.1253L38.6773 9.25903ZM40.6578 9.74165C40.5799 9.50184 40.2406 9.50184 40.1627 9.74165L38.5815 14.6079C38.3376 15.3587 37.638 15.867 36.8486 15.867H31.7319C31.4797 15.867 31.3749 16.1896 31.5789 16.3379L35.7184 19.3454C36.357 19.8094 36.6242 20.6318 36.3803 21.3826L34.7992 26.2488C34.7212 26.4887 34.9957 26.6881 35.1997 26.5399L39.3392 23.5323C39.9779 23.0684 40.8426 23.0684 41.4812 23.5323L45.6207 26.5399C45.8247 26.6881 46.0992 26.4887 46.0213 26.2488L44.4401 21.3826C44.1962 20.6318 44.4634 19.8094 45.1021 19.3454L49.2416 16.3379C49.4456 16.1897 49.3407 15.867 49.0886 15.867H43.9719C43.1825 15.867 42.4829 15.3587 42.2389 14.6079L40.6578 9.74165Z" stroke="#0E8792" stroke-width="0.5"/>
<path d="M51.7993 53.3808L46.1271 50.8598C45.7264 50.6818 45.4676 50.2834 45.4676 49.845V48.2874C47.373 46.7692 48.5977 44.4313 48.5977 41.8114V39.6188C49.2254 39.272 49.641 38.6017 49.641 37.851V37.6382C49.641 33.0731 45.9269 29.359 41.3618 29.359H39.2753C34.7101 29.359 30.9961 33.0731 30.9961 37.6382V39.569C30.9961 40.2288 31.28 40.8266 31.775 41.2091C31.8589 41.2739 31.9473 41.3309 32.0393 41.3802V41.8113C32.0393 44.4312 33.2639 46.7691 35.1692 48.2871V49.8449C35.1692 50.2833 34.9103 50.6816 34.5097 50.8597L28.8375 53.3807C26.9799 54.2062 25.7795 56.0533 25.7795 58.0861V71.0235C25.7795 71.5626 26.2166 71.9996 26.7557 71.9996C27.2947 71.9996 27.7318 71.5626 27.7318 71.0235V58.0862C27.7318 57.9731 27.7398 57.8613 27.7516 57.7505L30.3652 60.3641C30.7719 60.771 30.9961 61.3117 30.9961 61.8871V71.0236C30.9961 71.5627 31.4331 71.9997 31.9722 71.9997C32.5113 71.9997 32.9483 71.5627 32.9483 71.0236V61.8871C32.9483 60.7904 32.5213 59.7593 31.7457 58.9837L28.6298 55.8677C28.9105 55.5764 29.2474 55.335 29.6305 55.1646L35.207 52.6862L39.3425 56.8217V71.0235C39.3425 71.5626 39.7796 71.9996 40.3187 71.9996C40.8577 71.9996 41.2948 71.5626 41.2948 71.0235V56.8218L45.4303 52.6863L51.0067 55.1646C51.3898 55.335 51.7267 55.5764 52.0074 55.8678L48.8915 58.9837C48.1159 59.7593 47.6889 60.7904 47.6889 61.8871V71.0236C47.6889 71.5627 48.1259 71.9997 48.665 71.9997C49.2041 71.9997 49.6411 71.5627 49.6411 71.0236V61.8871C49.6411 61.3119 49.8651 60.771 50.272 60.3641L52.8855 57.7506C52.8972 57.8615 52.9053 57.973 52.9053 58.0861V71.0235C52.9053 71.5626 53.3423 71.9996 53.8814 71.9996C54.4205 71.9996 54.8575 71.5626 54.8575 71.0235V58.0862C54.8572 56.0534 53.6569 54.2064 51.7993 53.3808ZM40.3183 55.0371L36.6896 51.4083C36.9655 50.944 37.1213 50.4069 37.1213 49.845V49.4478C38.1056 49.8614 39.1857 50.0906 40.3184 50.0906C41.4511 50.0906 42.5311 49.8616 43.5153 49.448V49.845C43.5153 50.407 43.6711 50.944 43.9471 51.4084L40.3183 55.0371ZM40.3184 48.1383C36.8298 48.1384 33.9914 45.3001 33.9914 41.8114V41.3724C34.6005 41.131 35.1951 40.7468 35.7642 40.2217C36.1603 39.8561 36.1851 39.2385 35.8194 38.8423C35.4538 38.4463 34.8364 38.4214 34.4401 38.787C33.9519 39.2377 33.4641 39.5289 32.9906 39.6525C32.9791 39.6555 32.9707 39.6568 32.9647 39.6573C32.9577 39.6437 32.9482 39.615 32.9482 39.5691V37.6383C32.9482 34.1497 35.7865 31.3114 39.2751 31.3114H41.3617C44.8505 31.3114 47.6886 34.1497 47.6886 37.6383V37.8511C47.6886 37.8827 47.6696 37.9102 47.6446 37.9151C41.7995 39.0696 38.8678 36.8939 37.8786 35.9047C37.4974 35.5235 36.8793 35.5235 36.4983 35.9047C36.1171 36.2859 36.1171 36.904 36.4983 37.2851C39.5294 40.3163 43.9526 40.3709 46.6454 40.0474V41.8113C46.6454 45.3 43.8071 48.1383 40.3184 48.1383Z" stroke="#0E8792" stroke-width="0.5"/>
<path d="M24.6017 48.0715V45.9845C24.6017 43.438 23.2783 41.1963 21.2843 39.9063C21.4074 39.5113 21.4717 39.0976 21.4717 38.6815C21.4717 36.4174 19.6298 34.5755 17.3658 34.5755C15.1017 34.5755 13.2598 36.4175 13.2598 38.6815C13.2598 39.1028 13.3236 39.5125 13.447 39.9066C11.4531 41.1965 10.1298 43.4382 10.1298 45.9845V48.0711C10.1298 50.537 11.3706 52.7176 13.2597 54.0245V56.1711C13.2597 56.5945 13.0245 56.975 12.6459 57.1644L9.26968 58.8524C7.86966 59.5526 7 60.9598 7 62.5251V71.0237C7 71.5628 7.43704 71.9999 7.97612 71.9999C8.5152 71.9999 8.95224 71.5628 8.95224 71.0237V62.9473L10.5424 64.5375C10.9491 64.9443 11.1732 65.4851 11.1732 66.0605V71.0237C11.1732 71.5628 11.6103 71.9999 12.1494 71.9999C12.6884 71.9999 13.1255 71.5628 13.1255 71.0237V66.0605C13.1255 64.9637 12.6983 63.9327 11.9229 63.1571L9.70971 60.9439C9.69904 60.9333 9.68759 60.924 9.67666 60.914C9.81552 60.7914 9.97131 60.6847 10.1429 60.5988L13.5191 58.9107C13.692 58.8242 13.853 58.722 14.0031 58.6085L16.3896 60.9952V71.0239C16.3896 71.563 16.8267 72 17.3658 72C17.9048 72 18.3419 71.563 18.3419 71.0239V60.9951L20.7286 58.6084C20.8788 58.722 21.0396 58.8242 21.2126 58.9106L22.1435 59.3762C22.2837 59.4463 22.4326 59.4795 22.5794 59.4795C22.9375 59.4795 23.2822 59.2817 23.4532 58.9398C23.6944 58.4576 23.4989 57.8712 23.0167 57.6302L22.0858 57.1646C21.707 56.9753 21.4718 56.5947 21.4718 56.1715V54.0249C23.361 52.718 24.6017 50.5373 24.6017 48.0715ZM17.3658 36.5278C18.5534 36.5278 19.5195 37.494 19.5195 38.6815C19.5195 38.8123 19.5078 38.9405 19.4854 39.0661C18.8146 38.8602 18.1031 38.7486 17.3658 38.7486C16.6295 38.7486 15.9189 38.8598 15.2491 39.0651C15.2266 38.9396 15.212 38.812 15.212 38.6815C15.212 37.4939 16.1781 36.5278 17.3658 36.5278ZM17.3658 40.701C20.2792 40.701 22.6494 43.0713 22.6494 45.9847V46.3384C18.5855 47.5827 16.1636 44.4912 16.0601 44.3557C15.8903 44.1294 15.6306 43.9878 15.3484 43.9677C15.0663 43.948 14.7891 44.0512 14.589 44.2512C13.6573 45.183 12.7447 45.6324 12.0856 45.8493C12.1578 42.9983 14.4978 40.701 17.3658 40.701ZM17.3658 59.2102L15.1101 56.9546C15.176 56.7029 15.212 56.4405 15.212 56.1712V54.9797C15.8926 55.1924 16.6161 55.307 17.3658 55.307C18.1154 55.307 18.8389 55.1924 19.5195 54.9797V56.1712C19.5195 56.4405 19.5555 56.703 19.6214 56.9546L17.3658 59.2102ZM17.3658 53.3548C14.4524 53.3548 12.0821 50.9845 12.0821 48.0711V47.8688C12.8605 47.69 14.0147 47.2745 15.2187 46.3061C15.6447 46.708 16.2535 47.2011 17.0288 47.6239C17.9458 48.1241 19.2123 48.5868 20.7593 48.5868C21.3472 48.5868 21.9762 48.5184 22.6411 48.3615C22.4897 51.1404 20.1817 53.3548 17.3658 53.3548Z" stroke="#0E8792" stroke-width="0.5"/>
<path d="M71.3669 56.766L65.9041 54.0346C65.5255 53.8452 65.2903 53.4646 65.2903 53.0414V51.658C66.569 50.5227 67.3769 48.8683 67.3769 47.028V45.9169C67.3994 45.9169 67.4215 45.9175 67.444 45.9175C67.9831 45.9175 68.4202 45.4805 68.4202 44.9414V42.8548C68.4202 39.4402 65.6421 36.6622 62.2275 36.6622H60.141C56.7264 36.6622 53.9483 39.4402 53.9483 42.8548V44.9414C53.9483 45.4805 54.3854 45.9175 54.9244 45.9175C54.9325 45.9175 54.9559 45.9173 54.9916 45.9158V47.028C54.9916 48.8684 55.7996 50.5229 57.0783 51.6582V53.0415C57.0783 53.4649 56.8431 53.8454 56.4644 54.0347C55.9822 54.2757 55.7867 54.862 56.0278 55.3442C56.1989 55.6863 56.5436 55.8841 56.9017 55.8841C57.0484 55.8841 57.1972 55.8509 57.3374 55.7809C57.5104 55.6944 57.6714 55.5922 57.8214 55.4787L60.2081 57.8654V71.0239C60.2081 71.563 60.6452 72 61.1842 72C61.7233 72 62.1604 71.563 62.1604 71.0239V57.8651L64.5469 55.4784C64.6971 55.592 64.858 55.6942 65.0309 55.7806L70.317 58.4237L68.7136 60.027C67.9382 60.8026 67.5111 61.8336 67.5111 62.9304V71.0236C67.5111 71.5627 67.9481 71.9997 68.4872 71.9997C69.0263 71.9997 69.4633 71.5627 69.4633 71.0236V62.9304C69.4633 62.3551 69.6873 61.8142 70.0941 61.4074L71.6129 59.8887C71.6589 60.0653 71.6842 60.2495 71.6842 60.4384V71.0236C71.6842 71.5627 72.1212 71.9997 72.6603 71.9997C73.1994 71.9997 73.6364 71.5627 73.6364 71.0236V60.4384C73.6366 58.8732 72.7669 57.4661 71.3669 56.766ZM55.9004 43.7645V42.8547C55.9004 40.5166 57.8028 38.6143 60.141 38.6143H62.2275C64.5657 38.6143 66.4679 40.5166 66.4679 42.8547V43.939C62.2247 43.71 59.664 42.0588 59.6391 42.0426C59.4739 41.9325 59.2855 41.8786 59.0979 41.8786C58.846 41.8786 58.5961 41.9759 58.4074 42.1645C57.4734 43.0985 56.5583 43.548 55.9004 43.7645ZM61.1842 56.0804L58.9286 53.8247C58.9945 53.573 59.0305 53.3107 59.0305 53.0414V52.8335C59.7016 53.0833 60.4272 53.2205 61.1842 53.2205C61.9413 53.2205 62.6669 53.0833 63.338 52.8335V53.0414C63.338 53.3107 63.3739 53.573 63.4399 53.8247L61.1842 56.0804ZM61.1842 51.2684C58.8461 51.2684 56.9438 49.3662 56.9438 47.028V45.4543C57.6275 45.1811 58.424 44.7468 59.2346 44.0562C60.2597 44.5896 62.4043 45.5114 65.4246 45.816V47.028C65.4246 49.3661 63.5224 51.2684 61.1842 51.2684Z" stroke="#0E8792" stroke-width="0.5"/>
</g>
</g>
</svg>
