<svg width="80" height="80" viewBox="0 0 80 80" fill="none" xmlns="http://www.w3.org/2000/svg">
<g id="ico-training">
<g id="Vector">
<path fill-rule="evenodd" clip-rule="evenodd" d="M16.885 60.8106C17.3108 60.8106 17.656 61.1559 17.656 61.5816C17.656 62.7994 18.6469 63.7906 19.8649 63.7906C21.083 63.7903 22.0739 62.7996 22.0739 61.5816L22.0739 36.6457C22.0739 36.3339 22.2617 36.0529 22.5498 35.9335C22.8381 35.8142 23.1695 35.8802 23.39 36.1008L26.2353 38.9457C26.5416 39.2521 26.9508 39.421 27.387 39.421C27.8234 39.4209 28.2325 39.2522 28.5388 38.9458L35.9769 31.5079C36.7416 30.7432 36.7415 29.4991 35.9769 28.7346C35.2123 27.9698 33.968 27.9701 33.2035 28.7346L28.7808 33.1573C28.0122 33.926 26.7617 33.9256 25.9933 33.1574L22.6654 29.8339C22.6111 29.7797 22.5648 29.7608 22.4882 29.7608L8.86669 29.7605C7.81938 29.7605 6.96082 30.6336 6.91247 31.7478L6.23117 47.3961C6.2105 47.8735 6.39062 48.3369 6.73867 48.7003C7.11833 49.0965 7.64822 49.324 8.19291 49.324C9.27436 49.3238 10.154 48.4443 10.154 47.363C10.1541 46.9372 10.4992 46.592 10.925 46.592C11.3509 46.592 11.696 46.9372 11.696 47.363L11.696 61.5815C11.696 62.7994 12.6871 63.7906 13.905 63.7906C15.123 63.7903 16.114 62.7996 16.114 61.5816C16.1141 61.1558 16.4591 60.8106 16.885 60.8106ZM19.8649 65.3323C18.6517 65.3323 17.571 64.7535 16.885 63.8572C16.1988 64.7534 15.1183 65.3325 13.905 65.3325C11.8368 65.3323 10.154 63.6499 10.154 61.5816L10.1541 50.2641C9.59418 50.6439 8.91892 50.8659 8.19291 50.8659C7.22985 50.8658 6.29378 50.4654 5.62493 49.7668C4.9833 49.0965 4.65144 48.231 4.69061 47.3294L5.37205 31.6806C5.45634 29.7392 6.9915 28.2189 8.86669 28.2189L22.4882 28.2188C22.9734 28.2188 23.4114 28.4 23.7548 28.7429L27.0833 32.0666C27.2508 32.2339 27.523 32.2345 27.6904 32.067L32.1131 27.6438C33.479 26.2781 35.7014 26.2785 37.0671 27.6441C38.433 29.0099 38.4329 31.2324 37.0671 32.5981L29.6293 40.036C29.0317 40.6338 28.2352 40.963 27.3872 40.963C27.3871 40.963 27.3874 40.963 27.3872 40.963C26.539 40.9626 25.7426 40.6338 25.1449 40.036L23.6159 38.5069V61.5815C23.6159 63.6497 21.9332 65.3325 19.8649 65.3323Z" fill="#0E8792"/>
<path fill-rule="evenodd" clip-rule="evenodd" d="M16.885 62.3525C16.4592 62.3525 16.114 62.0076 16.114 61.5818L16.1141 46.0009C16.1141 45.5748 16.4591 45.23 16.885 45.23C17.3108 45.2297 17.656 45.5751 17.656 46.001L17.656 61.5816C17.656 62.0073 17.3108 62.3528 16.885 62.3525Z" fill="#0E8792"/>
<path fill-rule="evenodd" clip-rule="evenodd" d="M10.9251 48.1335C10.4993 48.1335 10.154 47.7886 10.154 47.3628L10.1541 37.2307C10.1541 36.805 10.4992 36.4599 10.925 36.4599C11.3509 36.4599 11.696 36.805 11.696 37.2308L11.696 47.3627C11.696 47.7884 11.3508 48.1338 10.9251 48.1335Z" fill="#0E8792"/>
<path fill-rule="evenodd" clip-rule="evenodd" d="M39.7675 45.1233H30.6418C30.216 45.1233 29.8708 44.7782 29.8708 44.3524V37.9335C29.8708 37.5073 30.216 37.1625 30.6418 37.1625C31.0677 37.1622 31.4127 37.5076 31.4127 37.9335L31.4128 43.5813H39.7675C40.1934 43.5813 40.5385 43.9266 40.5385 44.3524C40.5385 44.7782 40.1933 45.1234 39.7675 45.1233ZM74.5416 45.1233H65.4152C64.9894 45.1233 64.6443 44.7782 64.6443 44.3524C64.6443 43.9264 64.9894 43.5814 65.4151 43.5814L73.7707 43.5813V16.2091H31.4128V30.2058C31.4128 30.6319 31.0676 30.9771 30.6418 30.9771C30.216 30.977 29.8708 30.6319 29.8708 30.2061V15.4383C29.8708 15.0122 30.216 14.6673 30.6418 14.6673L74.5416 14.667C74.9673 14.667 75.3126 15.0125 75.3126 15.4383L75.3126 44.3522C75.3126 44.7782 74.9672 45.1234 74.5416 45.1233Z" fill="#0E8792"/>
<path fill-rule="evenodd" clip-rule="evenodd" d="M40.5385 45.9361H64.6443V42.7686H40.5385V45.9361ZM65.4153 47.4782H39.7675C39.3417 47.4782 38.9965 47.1331 38.9965 46.7072L38.9966 41.9977C38.9966 41.572 39.3417 41.2266 39.7675 41.2266L65.4153 41.2264C65.8411 41.2264 66.1862 41.572 66.1862 41.9977L66.1863 46.7069C66.1863 47.1331 65.8411 47.4782 65.4153 47.4782Z" fill="#0E8792"/>
<path fill-rule="evenodd" clip-rule="evenodd" d="M54.7188 65.3329H50.464C50.0384 65.3329 49.6932 64.9876 49.6932 64.5618L49.6933 46.7071C49.6933 46.2814 50.0384 45.9363 50.464 45.9363C50.8899 45.9363 51.235 46.2815 51.235 46.7072V63.7905H53.9479V46.7071C53.9479 46.2814 54.293 45.9363 54.7188 45.9363C55.1446 45.9363 55.4898 46.2815 55.4898 46.7072L55.4898 64.5617C55.4898 64.9874 55.1446 65.3329 54.7188 65.3329Z" fill="#0E8792"/>
<path fill-rule="evenodd" clip-rule="evenodd" d="M41.9677 65.3329H37.5628C37.322 65.3329 37.0947 65.2202 36.9488 65.028C36.8031 64.836 36.7554 64.5872 36.8202 64.3549L41.7961 46.5001C41.9105 46.0899 42.3355 45.8506 42.7457 45.9646C43.1559 46.0787 43.3957 46.5041 43.2815 46.9143L38.5782 63.7905H41.3822L46.2008 46.5001C46.3151 46.0903 46.7399 45.85 47.1505 45.9646C47.5607 46.0787 47.8005 46.5041 47.6861 46.9143L42.7103 64.7688C42.6175 65.102 42.3138 65.3329 41.9677 65.3329Z" fill="#0E8792"/>
<path fill-rule="evenodd" clip-rule="evenodd" d="M67.6196 65.3329H63.2149C62.8687 65.3329 62.565 65.1023 62.4721 64.7688L57.4965 46.9142C57.3821 46.5041 57.622 46.0789 58.0322 45.9646C58.4431 45.8503 58.8675 46.0903 58.9819 46.5004L63.8004 63.7905H66.6046L61.9011 46.9142C61.787 46.5041 62.0267 46.0789 62.4368 45.9646C62.847 45.8503 63.2723 46.0903 63.3865 46.5004L68.3624 64.3546C68.4271 64.587 68.3795 64.8361 68.2337 65.028C68.088 65.2202 67.8607 65.3329 67.6196 65.3329Z" fill="#0E8792"/>
<path fill-rule="evenodd" clip-rule="evenodd" d="M40.8427 37.056H42.988V30.8111H40.8427V37.056ZM43.7589 38.5981H40.0718C39.6459 38.5981 39.3006 38.2529 39.3006 37.8271L39.3006 30.0407C39.3006 29.6146 39.6459 29.2695 40.0717 29.2695L43.7589 29.2695C44.1847 29.2695 44.5298 29.6148 44.5298 30.0407L44.5299 37.8268C44.5299 38.2529 44.1847 38.5981 43.7589 38.5981Z" fill="#0E8792"/>
<path fill-rule="evenodd" clip-rule="evenodd" d="M47.9602 37.056H50.1055V28.3497H47.9602V37.056ZM50.8765 38.5981H47.1893C46.7635 38.5981 46.4183 38.2529 46.4183 37.8271L46.4183 27.5788C46.4183 27.1531 46.7635 26.8081 47.1893 26.8081L50.8765 26.808C51.3023 26.808 51.6476 27.1532 51.6476 27.579L51.6476 37.8268C51.6476 38.2529 51.3023 38.5981 50.8765 38.5981Z" fill="#0E8792"/>
<path fill-rule="evenodd" clip-rule="evenodd" d="M55.0773 37.056H57.2225V25.1102H55.0773V37.056ZM57.9935 38.5981H54.3062C53.8804 38.5981 53.5352 38.2529 53.5352 37.8271L53.5353 24.3394C53.5353 23.9132 53.8804 23.5684 54.3062 23.5684L57.9935 23.5681C58.4193 23.5681 58.7644 23.9135 58.7644 24.3394L58.7645 37.8268C58.7645 38.2529 58.4193 38.5981 57.9935 38.5981Z" fill="#0E8792"/>
<path fill-rule="evenodd" clip-rule="evenodd" d="M62.1949 37.056H64.3401V20.8461H62.1949V37.056ZM65.111 38.5981H61.4237C60.9979 38.5981 60.6527 38.2529 60.6527 37.8271V20.0753C60.6527 19.6495 60.9979 19.3045 61.4237 19.3045L65.111 19.3044C65.5368 19.3044 65.8819 19.6497 65.8819 20.0755L65.882 37.8268C65.882 38.2529 65.5368 38.5981 65.111 38.5981Z" fill="#0E8792"/>
<path fill-rule="evenodd" clip-rule="evenodd" d="M15.9823 16.693C14.7138 16.693 13.7452 17.0585 13.1035 17.779C12.3953 18.574 12.2468 19.6057 12.2468 20.3312C12.2468 22.6625 13.7809 25.26 15.9822 25.26C18.0993 25.2598 19.6812 22.6379 19.6812 20.2934C19.6812 19.5729 19.5344 18.5499 18.836 17.7655C18.2027 17.054 17.2423 16.6932 15.9823 16.693ZM15.9823 26.8015C12.8254 26.8015 10.7048 23.4561 10.7048 20.3312C10.7048 18.9065 11.1361 17.6696 11.952 16.7535C12.8855 15.7049 14.2792 15.1513 15.9822 15.1513C17.6774 15.1513 19.0623 15.7007 19.9877 16.7402C20.7959 17.6478 21.2231 18.8766 21.2231 20.2934C21.2231 23.4362 19.1173 26.8018 15.9823 26.8015Z" fill="#0E8792"/>
<path d="M17.656 61.5816C17.656 61.1559 17.3108 60.8106 16.885 60.8106C16.4591 60.8106 16.1141 61.1558 16.114 61.5816C16.114 62.7996 15.123 63.7903 13.905 63.7906C12.6871 63.7906 11.696 62.7994 11.696 61.5815L11.696 47.363C11.696 46.9372 11.3509 46.592 10.925 46.592C10.4992 46.592 10.1541 46.9372 10.154 47.363C10.154 48.4443 9.27436 49.3238 8.19291 49.324C7.64822 49.324 7.11833 49.0965 6.73867 48.7003C6.39062 48.3369 6.2105 47.8735 6.23117 47.3961L6.91247 31.7478C6.96082 30.6336 7.81938 29.7605 8.86669 29.7605L22.4882 29.7608C22.5648 29.7608 22.6111 29.7797 22.6654 29.8339L25.9933 33.1574C26.7617 33.9256 28.0122 33.926 28.7808 33.1573L33.2035 28.7346C33.968 27.9701 35.2123 27.9698 35.9769 28.7346C36.7415 29.4991 36.7415 30.7432 35.9769 31.5079L28.5388 38.9458C28.2325 39.2522 27.8234 39.4209 27.387 39.421C26.9508 39.421 26.5416 39.2521 26.2353 38.9457L23.39 36.1008C23.1695 35.8802 22.8381 35.8142 22.5498 35.9335C22.2617 36.0529 22.0739 36.3339 22.0739 36.6457L22.0739 61.5816C22.0739 62.7996 21.083 63.7903 19.8649 63.7906C18.6469 63.7906 17.656 62.7994 17.656 61.5816ZM17.656 61.5816L17.656 46.001C17.656 45.5751 17.3108 45.2297 16.885 45.23C16.4591 45.23 16.1141 45.5748 16.1141 46.0009L16.114 61.5818C16.114 62.0076 16.4592 62.3525 16.885 62.3525C17.3108 62.3528 17.656 62.0073 17.656 61.5816ZM27.3872 40.963C28.2352 40.963 29.0317 40.6338 29.6293 40.036L37.0671 32.5981C38.4329 31.2324 38.433 29.0099 37.0671 27.6441C35.7014 26.2785 33.479 26.2781 32.1131 27.6438L27.6904 32.067C27.523 32.2345 27.2508 32.2339 27.0833 32.0666L23.7548 28.7429C23.4114 28.4 22.9734 28.2188 22.4882 28.2188L8.86669 28.2189C6.9915 28.2189 5.45634 29.7392 5.37205 31.6806L4.69061 47.3294C4.65144 48.231 4.9833 49.0965 5.62493 49.7668C6.29378 50.4654 7.22985 50.8658 8.19291 50.8659C8.91892 50.8659 9.59418 50.6439 10.1541 50.2641L10.154 61.5816C10.154 63.6499 11.8368 65.3323 13.905 65.3325C15.1183 65.3325 16.1988 64.7534 16.885 63.8572C17.571 64.7535 18.6517 65.3323 19.8649 65.3323C21.9332 65.3325 23.6159 63.6497 23.6159 61.5815V38.5069L25.1449 40.036C25.7426 40.6338 26.539 40.9626 27.3872 40.963ZM27.3872 40.963C27.3871 40.963 27.3874 40.963 27.3872 40.963ZM10.9251 48.1335C10.4993 48.1335 10.154 47.7886 10.154 47.3628L10.1541 37.2307C10.1541 36.805 10.4992 36.4599 10.925 36.4599C11.3509 36.4598 11.696 36.805 11.696 37.2308L11.696 47.3627C11.696 47.7884 11.3508 48.1338 10.9251 48.1335ZM39.7675 45.1233H30.6418C30.216 45.1233 29.8708 44.7782 29.8708 44.3524V37.9335C29.8708 37.5073 30.216 37.1625 30.6418 37.1625C31.0677 37.1622 31.4127 37.5076 31.4127 37.9335L31.4128 43.5813H39.7675C40.1934 43.5813 40.5385 43.9266 40.5385 44.3524C40.5385 44.7782 40.1933 45.1234 39.7675 45.1233ZM74.5416 45.1233H65.4152C64.9894 45.1233 64.6443 44.7782 64.6443 44.3524C64.6443 43.9264 64.9894 43.5815 65.4151 43.5815L73.7707 43.5813V16.2091H31.4128V30.2058C31.4128 30.6319 31.0676 30.9771 30.6418 30.9771C30.216 30.977 29.8708 30.6319 29.8708 30.2061V15.4383C29.8708 15.0122 30.216 14.6673 30.6418 14.6673L74.5416 14.667C74.9673 14.667 75.3126 15.0125 75.3126 15.4383L75.3126 44.3522C75.3126 44.7782 74.9672 45.1234 74.5416 45.1233ZM40.5385 45.9361H64.6443V42.7686H40.5385V45.9361ZM65.4153 47.4782H39.7675C39.3417 47.4782 38.9965 47.1331 38.9965 46.7072L38.9966 41.9977C38.9966 41.572 39.3417 41.2266 39.7675 41.2266L65.4153 41.2264C65.8411 41.2264 66.1862 41.572 66.1862 41.9977L66.1863 46.7069C66.1863 47.1331 65.8411 47.4782 65.4153 47.4782ZM54.7188 65.3329H50.464C50.0384 65.3329 49.6932 64.9876 49.6932 64.5618L49.6933 46.7071C49.6933 46.2814 50.0384 45.9363 50.464 45.9363C50.8899 45.9363 51.235 46.2815 51.235 46.7072V63.7905H53.9479V46.7071C53.9479 46.2814 54.293 45.9363 54.7188 45.9363C55.1446 45.9363 55.4898 46.2815 55.4898 46.7072L55.4898 64.5617C55.4898 64.9874 55.1446 65.3329 54.7188 65.3329ZM41.9677 65.3329H37.5628C37.322 65.3329 37.0947 65.2202 36.9488 65.028C36.8031 64.836 36.7554 64.5872 36.8202 64.3549L41.7961 46.5001C41.9105 46.0899 42.3355 45.8506 42.7457 45.9646C43.1559 46.0787 43.3957 46.5041 43.2815 46.9143L38.5782 63.7905H41.3822L46.2008 46.5001C46.3151 46.0903 46.7399 45.85 47.1505 45.9646C47.5607 46.0787 47.8005 46.5041 47.6861 46.9143L42.7103 64.7688C42.6175 65.102 42.3138 65.3329 41.9677 65.3329ZM67.6196 65.3329H63.2149C62.8687 65.3329 62.565 65.1023 62.4721 64.7688L57.4965 46.9142C57.3821 46.5041 57.622 46.0789 58.0322 45.9646C58.4431 45.8503 58.8675 46.0903 58.9819 46.5004L63.8004 63.7905H66.6046L61.9011 46.9142C61.787 46.5041 62.0267 46.0789 62.4368 45.9646C62.847 45.8503 63.2723 46.0903 63.3865 46.5004L68.3624 64.3546C68.4271 64.587 68.3795 64.8361 68.2337 65.028C68.088 65.2202 67.8607 65.3329 67.6196 65.3329ZM40.8427 37.056H42.988V30.8111H40.8427V37.056ZM43.7589 38.5981H40.0718C39.6459 38.5981 39.3006 38.2529 39.3006 37.8271L39.3006 30.0407C39.3006 29.6146 39.6459 29.2695 40.0717 29.2695L43.7589 29.2695C44.1847 29.2695 44.5298 29.6148 44.5298 30.0407L44.5299 37.8268C44.5299 38.2529 44.1847 38.5981 43.7589 38.5981ZM47.9602 37.056H50.1055V28.3497H47.9602V37.056ZM50.8765 38.5981H47.1893C46.7635 38.5981 46.4183 38.2529 46.4183 37.8271L46.4183 27.5788C46.4183 27.1531 46.7635 26.8081 47.1893 26.8081L50.8765 26.808C51.3023 26.808 51.6476 27.1532 51.6476 27.579L51.6476 37.8268C51.6476 38.2529 51.3023 38.5981 50.8765 38.5981ZM55.0773 37.056H57.2225V25.1102H55.0773V37.056ZM57.9935 38.5981H54.3062C53.8804 38.5981 53.5352 38.2529 53.5352 37.8271L53.5353 24.3394C53.5353 23.9132 53.8804 23.5684 54.3062 23.5684L57.9935 23.5681C58.4193 23.5681 58.7644 23.9135 58.7644 24.3394L58.7645 37.8268C58.7645 38.2529 58.4193 38.5981 57.9935 38.5981ZM62.1949 37.056H64.3401V20.8461H62.1949V37.056ZM65.111 38.5981H61.4237C60.9979 38.5981 60.6527 38.2529 60.6527 37.8271V20.0753C60.6527 19.6495 60.9979 19.3045 61.4237 19.3045L65.111 19.3044C65.5368 19.3044 65.8819 19.6497 65.8819 20.0755L65.882 37.8268C65.882 38.2529 65.5368 38.5981 65.111 38.5981ZM15.9823 16.693C14.7138 16.693 13.7452 17.0585 13.1035 17.779C12.3953 18.574 12.2468 19.6057 12.2468 20.3312C12.2468 22.6625 13.7809 25.26 15.9822 25.26C18.0993 25.2598 19.6812 22.6379 19.6812 20.2934C19.6812 19.5729 19.5344 18.5499 18.836 17.7655C18.2027 17.054 17.2423 16.6932 15.9823 16.693ZM15.9823 26.8015C12.8254 26.8015 10.7048 23.4561 10.7048 20.3312C10.7048 18.9065 11.1361 17.6696 11.952 16.7535C12.8855 15.7049 14.2792 15.1513 15.9822 15.1513C17.6774 15.1513 19.0623 15.7007 19.9877 16.7402C20.7959 17.6478 21.2231 18.8766 21.2231 20.2934C21.2231 23.4362 19.1173 26.8018 15.9823 26.8015Z" stroke="#0E8792"/>
</g>
</g>
</svg>
