<svg width="80" height="80" viewBox="0 0 80 80" fill="none" xmlns="http://www.w3.org/2000/svg">
<g id="ico-social-netw">
<g id="Vector">
<path d="M45.7213 63.6066H43.6229V53.3246C43.6229 53.0463 43.5124 52.7795 43.3157 52.5827C43.1189 52.3859 42.852 52.2754 42.5738 52.2754C42.2955 52.2754 42.0286 52.3859 41.8319 52.5827C41.6351 52.7795 41.5246 53.0463 41.5246 53.3246V63.6066H14.2459V42.623H22.9751C23.2533 42.623 23.5202 42.5124 23.717 42.3157C23.9137 42.1189 24.0243 41.852 24.0243 41.5738C24.0243 41.2955 23.9137 41.0286 23.717 40.8319C23.5202 40.6351 23.2533 40.5246 22.9751 40.5246H13.1967C12.9185 40.5246 12.6516 40.6351 12.4548 40.8319C12.2581 41.0286 12.1475 41.2955 12.1475 41.5738V63.6066H10.0492C9.77092 63.6066 9.50406 63.7171 9.3073 63.9139C9.11054 64.1106 9 64.3775 9 64.6557V66.7541C9 68.1454 9.55269 69.4797 10.5365 70.4635C11.5203 71.4473 12.8546 72 14.2459 72H41.5246C42.9159 72 44.2502 71.4473 45.234 70.4635C46.2178 69.4797 46.7705 68.1454 46.7705 66.7541V64.6557C46.7705 64.3775 46.66 64.1106 46.4632 63.9139C46.2664 63.7171 45.9996 63.6066 45.7213 63.6066ZM44.6721 66.7541C44.6721 67.5889 44.3405 68.3895 43.7502 68.9797C43.16 69.57 42.3594 69.9016 41.5246 69.9016H39.4262V68.8525C39.4262 68.5742 39.3157 68.3073 39.1189 68.1106C38.9222 67.9138 38.6553 67.8033 38.377 67.8033C38.0988 67.8033 37.8319 67.9138 37.6352 68.1106C37.4384 68.3073 37.3279 68.5742 37.3279 68.8525V69.9016H18.4426V68.8525C18.4426 68.5742 18.3321 68.3073 18.1353 68.1106C17.9386 67.9138 17.6717 67.8033 17.3934 67.8033C17.1152 67.8033 16.8483 67.9138 16.6516 68.1106C16.4548 68.3073 16.3443 68.5742 16.3443 68.8525V69.9016H14.2459C13.4111 69.9016 12.6105 69.57 12.0203 68.9797C11.43 68.3895 11.0984 67.5889 11.0984 66.7541V65.7049H44.6721V66.7541Z" fill="#0E8792"/>
<path d="M63.5574 15.3443H65.6557C65.934 15.3443 66.2009 15.2337 66.3976 15.037C66.5944 14.8402 66.7049 14.5733 66.7049 14.2951C66.7049 14.0168 66.5944 13.75 66.3976 13.5532C66.2009 13.3564 65.934 13.2459 65.6557 13.2459H63.5574C62.7226 13.2459 61.922 13.5775 61.3317 14.1678C60.7415 14.7581 60.4098 15.5587 60.4098 16.3934V17.4426H59.3607C59.0824 17.4426 58.8155 17.5532 58.6188 17.7499C58.422 17.9467 58.3115 18.2135 58.3115 18.4918C58.3115 18.7701 58.422 19.0369 58.6188 19.2337C58.8155 19.4304 59.0824 19.541 59.3607 19.541H60.4098V22.6885C60.4098 22.9668 60.5204 23.2337 60.7171 23.4304C60.9139 23.6272 61.1808 23.7377 61.459 23.7377C61.7373 23.7377 62.0041 23.6272 62.2009 23.4304C62.3977 23.2337 62.5082 22.9668 62.5082 22.6885V19.541H63.5574C63.8356 19.541 64.1025 19.4304 64.2993 19.2337C64.496 19.0369 64.6066 18.7701 64.6066 18.4918C64.6066 18.2135 64.496 17.9467 64.2993 17.7499C64.1025 17.5532 63.8356 17.4426 63.5574 17.4426H62.5082V16.3934C62.5082 16.1152 62.6187 15.8483 62.8155 15.6516C63.0122 15.4548 63.2791 15.3443 63.5574 15.3443Z" fill="#0E8792"/>
<path d="M68.8033 9.04918H56.2131C55.3783 9.04918 54.5777 9.3808 53.9875 9.97108C53.3972 10.5614 53.0656 11.3619 53.0656 12.1967V14.2951C53.0656 14.5733 53.1761 14.8402 53.3729 15.037C53.5696 15.2337 53.8365 15.3443 54.1147 15.3443C54.393 15.3443 54.6599 15.2337 54.8566 15.037C55.0534 14.8402 55.1639 14.5733 55.1639 14.2951V12.1967C55.1639 11.9185 55.2745 11.6516 55.4712 11.4548C55.668 11.2581 55.9349 11.1475 56.2131 11.1475H68.8033C69.0815 11.1475 69.3484 11.2581 69.5452 11.4548C69.7419 11.6516 69.8525 11.9185 69.8525 12.1967V24.7869C69.8525 25.0651 69.7419 25.332 69.5452 25.5288C69.3484 25.7255 69.0815 25.8361 68.8033 25.8361H56.2131C55.9349 25.8361 55.668 25.7255 55.4712 25.5288C55.2745 25.332 55.1639 25.0651 55.1639 24.7869V18.4918C55.1639 18.2135 55.0534 17.9467 54.8566 17.7499C54.6599 17.5532 54.393 17.4426 54.1147 17.4426C53.8365 17.4426 53.5696 17.5532 53.3729 17.7499C53.1761 17.9467 53.0656 18.2135 53.0656 18.4918V24.7869C53.0656 25.6217 53.3972 26.4223 53.9875 27.0125C54.5777 27.6028 55.3783 27.9344 56.2131 27.9344H68.8033C69.6381 27.9344 70.4386 27.6028 71.0289 27.0125C71.6192 26.4223 71.9508 25.6217 71.9508 24.7869V12.1967C71.9508 11.3619 71.6192 10.5614 71.0289 9.97108C70.4386 9.3808 69.6381 9.04918 68.8033 9.04918Z" fill="#0E8792"/>
<path d="M58.3115 51.0164C58.3115 51.8464 58.5576 52.6578 59.0187 53.348C59.4799 54.0381 60.1353 54.576 60.9022 54.8937C61.669 55.2113 62.5128 55.2944 63.3269 55.1325C64.141 54.9705 64.8888 54.5708 65.4757 53.9839C66.0626 53.397 66.4623 52.6492 66.6243 51.8351C66.7862 51.021 66.7031 50.1772 66.3855 49.4104C66.0678 48.6435 65.5299 47.9881 64.8398 47.527C64.1496 47.0658 63.3382 46.8197 62.5082 46.8197C61.3952 46.8197 60.3277 47.2618 59.5407 48.0489C58.7536 48.8359 58.3115 49.9034 58.3115 51.0164ZM64.6066 51.0164C64.6066 51.4314 64.4835 51.8371 64.2529 52.1822C64.0223 52.5273 63.6946 52.7962 63.3112 52.955C62.9278 53.1138 62.5059 53.1554 62.0988 53.0744C61.6918 52.9935 61.3179 52.7936 61.0244 52.5002C60.731 52.2067 60.5311 51.8328 60.4502 51.4258C60.3692 51.0187 60.4107 50.5968 60.5696 50.2134C60.7284 49.83 60.9973 49.5022 61.3424 49.2717C61.6875 49.0411 62.0932 48.918 62.5082 48.918C63.0647 48.918 63.5984 49.1391 63.992 49.5326C64.3855 49.9261 64.6066 50.4599 64.6066 51.0164Z" fill="#0E8792"/>
<path d="M68.8033 41.5738H56.2131C55.3783 41.5738 54.5777 41.9054 53.9875 42.4957C53.3972 43.0859 53.0656 43.8865 53.0656 44.7213V57.3115C53.0656 58.1463 53.3972 58.9468 53.9875 59.5371C54.5777 60.1274 55.3783 60.459 56.2131 60.459H68.8033C69.6381 60.459 70.4386 60.1274 71.0289 59.5371C71.6192 58.9468 71.9508 58.1463 71.9508 57.3115V55.2131C71.9508 54.9349 71.8403 54.668 71.6435 54.4712C71.4468 54.2745 71.1799 54.1639 70.9016 54.1639C70.6234 54.1639 70.3565 54.2745 70.1598 54.4712C69.963 54.668 69.8525 54.9349 69.8525 55.2131V57.3115C69.8525 57.5897 69.7419 57.8566 69.5452 58.0534C69.3484 58.2501 69.0815 58.3607 68.8033 58.3607H56.2131C55.9349 58.3607 55.668 58.2501 55.4712 58.0534C55.2745 57.8566 55.1639 57.5897 55.1639 57.3115V44.7213C55.1639 44.4431 55.2745 44.1762 55.4712 43.9794C55.668 43.7827 55.9349 43.6721 56.2131 43.6721H68.8033C69.0815 43.6721 69.3484 43.7827 69.5452 43.9794C69.7419 44.1762 69.8525 44.4431 69.8525 44.7213V51.0164C69.8525 51.2947 69.963 51.5615 70.1598 51.7583C70.3565 51.955 70.6234 52.0656 70.9016 52.0656C71.1799 52.0656 71.4468 51.955 71.6435 51.7583C71.8403 51.5615 71.9508 51.2947 71.9508 51.0164V44.7213C71.9508 43.8865 71.6192 43.0859 71.0289 42.4957C70.4386 41.9054 69.6381 41.5738 68.8033 41.5738Z" fill="#0E8792"/>
<path d="M32.5751 21.482C32.742 21.5855 32.9347 21.64 33.1311 21.6393C33.2954 21.6384 33.4571 21.5988 33.6033 21.5239L39.8984 18.3764C40.0702 18.2884 40.2144 18.1546 40.3152 17.9898C40.4159 17.8251 40.4692 17.6357 40.4692 17.4426C40.4692 17.2495 40.4159 17.0602 40.3152 16.8954C40.2144 16.7307 40.0702 16.5969 39.8984 16.5089L33.6033 13.3613C33.4436 13.2808 33.2659 13.2425 33.0872 13.25C32.9085 13.2575 32.7347 13.3105 32.5823 13.4041C32.4299 13.4976 32.3039 13.6286 32.2163 13.7846C32.1288 13.9405 32.0825 14.1162 32.082 14.2951V20.5902C32.0816 20.7685 32.1267 20.9439 32.213 21.1C32.2993 21.256 32.4239 21.3875 32.5751 21.482ZM34.1803 15.9948L37.0761 17.4426L34.1803 18.8905V15.9948Z" fill="#0E8792"/>
<path d="M35.2295 26.8852C37.0971 26.8852 38.9227 26.3314 40.4755 25.2939C42.0284 24.2563 43.2387 22.7816 43.9534 21.0562C44.668 19.3307 44.855 17.4322 44.4907 15.6005C44.1263 13.7688 43.227 12.0863 41.9064 10.7657C40.5859 9.44511 38.9034 8.54579 37.0717 8.18144C35.24 7.8171 33.3414 8.00409 31.616 8.71878C29.8906 9.43347 28.4158 10.6438 27.3783 12.1966C26.3407 13.7494 25.7869 15.5751 25.7869 17.4426C25.7869 19.947 26.7817 22.3487 28.5526 24.1196C30.3234 25.8904 32.7252 26.8852 35.2295 26.8852ZM35.2295 10.0984C36.6821 10.0984 38.102 10.5291 39.3098 11.3361C40.5175 12.1431 41.4588 13.2901 42.0147 14.6321C42.5706 15.9741 42.716 17.4508 42.4327 18.8754C42.1493 20.3001 41.4498 21.6087 40.4227 22.6358C39.3956 23.6629 38.0869 24.3624 36.6623 24.6458C35.2377 24.9292 33.761 24.7837 32.419 24.2278C31.077 23.672 29.93 22.7306 29.123 21.5229C28.316 20.3151 27.8852 18.8952 27.8852 17.4426C27.8852 15.4948 28.659 13.6268 30.0363 12.2494C31.4136 10.8721 33.2817 10.0984 35.2295 10.0984Z" fill="#0E8792"/>
<path d="M45.7213 31.082C45.8842 31.082 46.0448 31.044 46.1905 30.9712C46.3362 30.8984 46.4629 30.7926 46.5607 30.6623L49.7082 26.4656C49.8751 26.243 49.9468 25.9632 49.9075 25.6877C49.8681 25.4122 49.721 25.1637 49.4984 24.9967C49.2757 24.8298 48.9959 24.7581 48.7205 24.7974C48.445 24.8368 48.1965 24.984 48.0295 25.2066L44.882 29.4033C44.715 29.6259 44.6433 29.9057 44.6827 30.1812C44.722 30.4566 44.8692 30.7052 45.0918 30.8721C45.2734 31.0083 45.4943 31.082 45.7213 31.082Z" fill="#0E8792"/>
<path d="M48.0295 34.859C48.1272 34.9893 48.254 35.0951 48.3996 35.1679C48.5453 35.2408 48.706 35.2787 48.8689 35.2787C49.0959 35.2787 49.3167 35.2051 49.4984 35.0689L53.6951 31.9213C53.9177 31.7544 54.0649 31.5058 54.1042 31.2303C54.1436 30.9549 54.0719 30.6751 53.9049 30.4525C53.738 30.2299 53.4894 30.0827 53.2139 30.0433C52.9385 30.004 52.6587 30.0757 52.4361 30.2426L48.2393 33.3902C48.0167 33.5571 47.8696 33.8057 47.8302 34.0811C47.7909 34.3566 47.8626 34.6364 48.0295 34.859Z" fill="#0E8792"/>
<path d="M58.3115 37.1672C58.2865 37.0281 58.2338 36.8955 58.1563 36.7773C58.0788 36.6591 57.9783 36.5578 57.8607 36.4794C57.7432 36.401 57.611 36.3472 57.4721 36.3211C57.3332 36.2951 57.1904 36.2974 57.0525 36.3279L51.8066 37.3771C51.6688 37.3908 51.5351 37.4316 51.413 37.4971C51.291 37.5625 51.1831 37.6514 51.0954 37.7585C50.9183 37.975 50.8345 38.2529 50.8623 38.5312C50.8901 38.8094 51.0273 39.0652 51.2438 39.2423C51.4602 39.4194 51.7381 39.5032 52.0164 39.4754H52.2262L57.4721 38.4262C57.6112 38.4013 57.7439 38.3485 57.862 38.2711C57.9802 38.1936 58.0816 38.0931 58.16 37.9755C58.2383 37.8579 58.2922 37.7257 58.3182 37.5868C58.3442 37.4479 58.342 37.3052 58.3115 37.1672Z" fill="#0E8792"/>
<path d="M10.0492 37.3771H22.6393C22.9176 37.3771 23.1845 37.2665 23.3812 37.0698C23.578 36.873 23.6885 36.6061 23.6885 36.3279V19.541C23.6885 19.2627 23.578 18.9959 23.3812 18.7991C23.1845 18.6023 22.9176 18.4918 22.6393 18.4918H10.0492C9.77092 18.4918 9.50406 18.6023 9.3073 18.7991C9.11054 18.9959 9 19.2627 9 19.541V36.3279C9 36.6061 9.11054 36.873 9.3073 37.0698C9.50406 37.2665 9.77092 37.3771 10.0492 37.3771ZM11.0984 20.5902H21.5902V35.2787H11.0984V20.5902Z" fill="#0E8792"/>
<path d="M18.4426 22.6885H16.3443C16.066 22.6885 15.7991 22.7991 15.6024 22.9958C15.4056 23.1926 15.2951 23.4594 15.2951 23.7377C15.2951 24.016 15.4056 24.2828 15.6024 24.4796C15.7991 24.6764 16.066 24.7869 16.3443 24.7869H18.4426C18.7209 24.7869 18.9877 24.6764 19.1845 24.4796C19.3813 24.2828 19.4918 24.016 19.4918 23.7377C19.4918 23.4594 19.3813 23.1926 19.1845 22.9958C18.9877 22.7991 18.7209 22.6885 18.4426 22.6885Z" fill="#0E8792"/>
<path d="M18.4426 26.8852H14.2459C13.9676 26.8852 13.7008 26.9958 13.504 27.1925C13.3073 27.3893 13.1967 27.6562 13.1967 27.9344C13.1967 28.2127 13.3073 28.4796 13.504 28.6763C13.7008 28.8731 13.9676 28.9836 14.2459 28.9836H18.4426C18.7209 28.9836 18.9877 28.8731 19.1845 28.6763C19.3813 28.4796 19.4918 28.2127 19.4918 27.9344C19.4918 27.6562 19.3813 27.3893 19.1845 27.1925C18.9877 26.9958 18.7209 26.8852 18.4426 26.8852Z" fill="#0E8792"/>
<path d="M18.4426 31.082H14.2459C13.9676 31.082 13.7008 31.1925 13.504 31.3893C13.3073 31.586 13.1967 31.8529 13.1967 32.1311C13.1967 32.4094 13.3073 32.6763 13.504 32.873C13.7008 33.0698 13.9676 33.1803 14.2459 33.1803H18.4426C18.7209 33.1803 18.9877 33.0698 19.1845 32.873C19.3813 32.6763 19.4918 32.4094 19.4918 32.1311C19.4918 31.8529 19.3813 31.586 19.1845 31.3893C18.9877 31.1925 18.7209 31.082 18.4426 31.082Z" fill="#0E8792"/>
<path d="M44.798 37.0623C44.7291 36.9424 44.6373 36.8373 44.5278 36.7529C44.4183 36.6685 44.2932 36.6066 44.1597 36.5705C44.0263 36.5345 43.887 36.5251 43.7499 36.5428C43.6128 36.5606 43.4805 36.6052 43.3607 36.6741C43.2408 36.743 43.1357 36.8348 43.0513 36.9443C42.9669 37.0539 42.9049 37.1789 42.8689 37.3124C42.8328 37.4459 42.8234 37.5851 42.8412 37.7222C42.859 37.8593 42.9036 37.9916 42.9725 38.1115L47.5993 46.1167L30.8125 52.4118C30.8125 52.4118 30.8125 52.4118 30.739 52.4118H30.6551L26.1121 55.0348C25.8732 55.1729 25.6093 55.2625 25.3357 55.2985C25.062 55.3346 24.7839 55.3162 24.5174 55.2446C23.9819 55.0999 23.5254 54.7491 23.2479 54.2689L21.1495 50.6387C20.9026 50.1637 20.8466 49.6124 20.9929 49.0975C21.1392 48.5826 21.4767 48.1431 21.9364 47.8689L25.5666 45.7705L28.1895 50.3134C28.2819 50.4736 28.415 50.6064 28.5753 50.6985C28.7356 50.7906 28.9174 50.8388 29.1023 50.838C29.2868 50.8388 29.4683 50.7908 29.6283 50.699C29.7884 50.6073 29.9215 50.4749 30.014 50.3153C30.1066 50.1556 30.1555 49.9744 30.1556 49.7899C30.1558 49.6054 30.1073 49.4241 30.0151 49.2643L27.3082 44.5849L40.4754 33.7259L40.9056 34.4708C40.9745 34.5907 41.0663 34.6958 41.1758 34.7802C41.2853 34.8646 41.4104 34.9266 41.5439 34.9626C41.6773 34.9987 41.8166 35.0081 41.9537 34.9903C42.0908 34.9725 42.2231 34.9279 42.3429 34.859C42.4628 34.7901 42.5679 34.6983 42.6523 34.5888C42.7367 34.4793 42.7987 34.3542 42.8347 34.2207C42.8708 34.0873 42.8802 33.948 42.8624 33.8109C42.8446 33.6738 42.8 33.5415 42.7311 33.4216L41.682 31.6066C41.6051 31.4751 41.5005 31.362 41.3755 31.275C41.2505 31.188 41.108 31.1293 40.958 31.103C40.8072 31.0745 40.6521 31.0795 40.5034 31.1176C40.3548 31.1557 40.2163 31.2259 40.0977 31.3233L25.4092 43.4308L20.9397 46.0118C20.1376 46.479 19.513 47.1989 19.1637 48.0589C18.8144 48.9189 18.76 49.8704 19.0092 50.7646L17.96 51.3626C17.4194 51.6731 16.9832 52.137 16.7066 52.6957C16.4301 53.2544 16.3256 53.8826 16.4065 54.5007C16.4874 55.1188 16.7501 55.6989 17.1611 56.1676C17.5722 56.6363 18.1131 56.9723 18.7154 57.1331C18.9824 57.2038 19.2576 57.2391 19.5338 57.238C20.0857 57.2358 20.6277 57.0912 21.1075 56.8184L22.1567 56.2203C22.6607 56.741 23.2946 57.1177 23.9928 57.3115C24.3513 57.4118 24.7221 57.4612 25.0944 57.4584C25.8319 57.4601 26.5564 57.2645 27.1928 56.8918L28.1056 56.3672L30.2039 60.0079C30.621 60.7289 31.3067 61.2552 32.1111 61.4715C32.9154 61.6878 33.7727 61.5765 34.4951 61.162C34.8535 60.9555 35.1677 60.6803 35.4197 60.3523C35.6717 60.0243 35.8565 59.6499 35.9637 59.2504C36.0709 58.8508 36.0983 58.4341 36.0443 58.024C35.9904 57.6139 35.8561 57.2185 35.6492 56.8603L33.7397 53.5344L49.4774 47.6275C49.6201 47.5739 49.7494 47.4898 49.8563 47.3811C49.9632 47.2724 50.0452 47.1416 50.0964 46.998C50.1475 46.8561 50.1673 46.7049 50.1547 46.5546C50.142 46.4043 50.0971 46.2586 50.0229 46.1272L44.798 37.0623ZM20.0164 54.9928C19.8969 55.0619 19.765 55.1067 19.6282 55.1247C19.4913 55.1427 19.3523 55.1335 19.219 55.0977C18.9502 55.0279 18.7201 54.8543 18.579 54.6151C18.5099 54.4956 18.4651 54.3637 18.4471 54.2268C18.4291 54.09 18.4383 53.951 18.4741 53.8177C18.5099 53.6837 18.5719 53.5582 18.6566 53.4483C18.7412 53.3385 18.8468 53.2465 18.9672 53.1777L19.88 52.6531L20.9292 54.4682L20.0164 54.9928ZM33.8236 57.9305C33.8927 58.05 33.9375 58.1819 33.9555 58.3187C33.9735 58.4556 33.9643 58.5946 33.9285 58.7279C33.8537 58.9946 33.6764 59.2209 33.4354 59.3574C33.1958 59.495 32.9115 59.5326 32.6443 59.4619C32.3771 59.3912 32.1487 59.2179 32.0085 58.9797L29.9102 55.339L31.6518 54.3423H31.7357L33.8236 57.9305Z" fill="#0E8792"/>
</g>
</g>
</svg>
