<svg width="80" height="80" viewBox="0 0 80 80" fill="none" xmlns="http://www.w3.org/2000/svg">
<path d="M29.5625 62.625C26.9778 62.625 24.875 64.7278 24.875 67.3125C24.875 69.8973 26.9778 72 29.5625 72C32.1473 72 34.25 69.8973 34.25 67.3125C34.25 64.7278 32.1473 62.625 29.5625 62.625ZM29.5625 70.125C28.0117 70.125 26.75 68.8632 26.75 67.3125C26.75 65.7617 28.0117 64.5 29.5625 64.5C31.1132 64.5 32.375 65.7617 32.375 67.3125C32.375 68.8632 31.1132 70.125 29.5625 70.125Z" fill="#0E8792"/>
<path d="M29.5625 68.25C30.0803 68.25 30.5 67.8303 30.5 67.3125C30.5 66.7947 30.0803 66.375 29.5625 66.375C29.0447 66.375 28.625 66.7947 28.625 67.3125C28.625 67.8303 29.0447 68.25 29.5625 68.25Z" fill="#0E8792"/>
<path d="M61.6875 68.25C62.2053 68.25 62.625 67.8303 62.625 67.3125C62.625 66.7947 62.2053 66.375 61.6875 66.375C61.1697 66.375 60.75 66.7947 60.75 67.3125C60.75 67.8303 61.1697 68.25 61.6875 68.25Z" fill="#0E8792"/>
<path d="M61.6875 62.625C59.1028 62.625 57 64.7278 57 67.3125C57 69.8973 59.1028 72 61.6875 72C64.2723 72 66.375 69.8973 66.375 67.3125C66.375 64.7278 64.2723 62.625 61.6875 62.625ZM61.6875 70.125C60.1367 70.125 58.875 68.8632 58.875 67.3125C58.875 65.7617 60.1367 64.5 61.6875 64.5C63.2382 64.5 64.5 65.7617 64.5 67.3125C64.5 68.8632 63.2382 70.125 61.6875 70.125Z" fill="#0E8792"/>
<path d="M23.4808 53.3693L30.3048 49.5H45.625C47.8886 49.5 49.7828 47.887 50.2184 45.75H59.9821C62.9824 45.75 65.5968 43.72 66.34 40.8134L71.9708 18.7949C72.0424 18.5142 71.9805 18.2164 71.8029 17.9876C71.6253 17.7589 71.352 17.625 71.0625 17.625H25.0328L24.5546 15.7556C23.3884 11.1892 19.2795 8 14.5625 8H10.8125C9.26175 8 8 9.26175 8 10.8125C8 12.3632 9.26175 13.625 10.8125 13.625H14.5625C16.7071 13.625 18.5749 15.0737 19.1048 17.1484L26.3053 45.3015L20.7078 48.4753C18.6521 49.639 17.375 51.8279 17.375 54.1875C17.375 57.806 20.319 60.75 23.9375 60.75H65.4375C66.9883 60.75 68.25 59.4883 68.25 57.9375C68.25 56.3867 66.9883 55.125 65.4375 55.125H23.9375C23.4205 55.125 23 54.7045 23 54.1875C23 53.8506 23.184 53.5373 23.4808 53.3693ZM58.2304 35.125H52.4693L52.8208 28.25H59.2851L58.2304 35.125ZM61.182 28.25H67.6175L65.8594 35.125H60.1273L61.182 28.25ZM57.9426 37L56.8879 43.875H52.0219L52.3734 37H57.9426ZM50.5918 35.125H44.8209L44.4691 28.25H50.9433L50.5918 35.125ZM52.9166 26.375L53.2681 19.5H60.6275L59.5728 26.375H52.9166ZM51.0391 26.375H44.3731L44.0214 19.5H51.3906L51.0391 26.375ZM42.4958 26.375H38.7849C38.267 26.375 37.8474 26.7946 37.8474 27.3125C37.8474 27.8304 38.267 28.25 38.7849 28.25H42.5916L42.9434 35.125H37.1824L34.7845 19.5H42.1439L42.4958 26.375ZM35.2855 35.125H29.5085L27.7501 28.25H34.2304L35.2855 35.125ZM35.5733 37L36.6284 43.875H31.7465L29.9881 37H35.5733ZM38.5253 43.875L37.4701 37H43.0394L43.3911 43.875H38.5253ZM45.2686 43.875L44.9169 37H50.4959L50.1444 43.875H45.2686ZM64.5235 40.3489C63.9926 42.4249 62.1251 43.875 59.9821 43.875H58.7848L59.8395 37H65.3798L64.5235 40.3489ZM68.097 26.375H61.4698L62.5245 19.5H69.8551L68.097 26.375ZM32.8876 19.5L33.9428 26.375H27.2708L25.5124 19.5H32.8876ZM14.5625 11.75H10.8125C10.2955 11.75 9.875 11.3295 9.875 10.8125C9.875 10.2955 10.2955 9.875 10.8125 9.875H14.5625C16.5331 9.875 18.373 10.5564 19.8298 11.7192L18.4931 13.056C17.3878 12.2301 16.0213 11.75 14.5625 11.75ZM23.9375 57H65.4375C65.9545 57 66.375 57.4205 66.375 57.9375C66.375 58.4545 65.9545 58.875 65.4375 58.875H23.9375C21.3528 58.875 19.25 56.7723 19.25 54.1875C19.25 52.5021 20.1626 50.9385 21.6321 50.1065L27.8535 46.579C28.2215 46.3702 28.4041 45.941 28.2993 45.5311L20.9213 16.6841C20.7034 15.8309 20.323 15.0541 19.8196 14.3814L21.1566 13.0444C21.8863 13.9571 22.4345 15.0311 22.738 16.2199L30.1104 45.0449C30.2165 45.4598 30.5903 45.7501 31.0186 45.7501H48.2769C47.8899 46.8414 46.8473 47.6251 45.625 47.6251H30.0575C29.8954 47.6251 29.7361 47.6671 29.5951 47.7471L22.5565 51.738C21.6736 52.2375 21.125 53.1763 21.125 54.1875C21.125 55.7383 22.3868 57 23.9375 57Z" fill="#0E8792"/>
</svg>
