<svg width="80" height="80" viewBox="0 0 80 80" fill="none" xmlns="http://www.w3.org/2000/svg">
<path d="M18.0619 57.9981C18.0619 56.4475 19.3235 55.1858 20.8743 55.1858C22.4251 55.1858 23.6867 56.4473 23.6867 57.9981C23.6867 59.5488 22.4251 60.8105 20.8743 60.8105C19.3236 60.8105 18.0619 59.549 18.0619 57.9981Z" fill="#0E8792"/>
<path d="M18.0618 22.8435C18.0618 22.0672 18.6918 21.4372 19.4681 21.4372C20.2443 21.4372 20.8743 22.0672 20.8743 22.8435C20.8743 23.6197 20.2443 24.2497 19.4681 24.2497C18.6918 24.2497 18.0618 23.6197 18.0618 22.8435Z" fill="#0E8792"/>
<path d="M42.8109 21.4372H25.0929C24.3162 21.4372 23.6866 22.0669 23.6866 22.8435C23.6866 23.62 24.3162 24.2497 25.0929 24.2497H42.8109C43.5876 24.2497 44.2171 23.62 44.2171 22.8435C44.2171 22.0669 43.5874 21.4372 42.8109 21.4372Z" fill="#0E8792"/>
<path d="M30.7176 27.0619H42.8109C43.5875 27.0619 44.2172 27.6916 44.2172 28.4682C44.2172 29.2447 43.5876 29.8744 42.8109 29.8744H30.7176C29.941 29.8744 29.3114 29.2447 29.3114 28.4682C29.3114 27.6916 29.941 27.0619 30.7176 27.0619Z" fill="#0E8792"/>
<path d="M64.7474 55.1858C63.1966 55.1858 61.935 56.4475 61.935 57.9981C61.935 59.549 63.1967 60.8105 64.7474 60.8105C66.2982 60.8105 67.5597 59.5488 67.5597 57.9981C67.5597 56.4473 66.2982 55.1858 64.7474 55.1858Z" fill="#0E8792"/>
<path fill-rule="evenodd" clip-rule="evenodd" d="M68.1891 29.3945L70.2238 33.464C72.376 37.8521 73.7282 40.5006 74.577 42.1631L74.5777 42.1644C75.6999 44.3625 75.9416 44.836 75.9892 45.328C76.0022 45.4629 76.0007 45.5993 75.9987 45.7729C75.9979 45.8436 75.997 45.9207 75.997 46.0061V53.7795C75.997 55.615 74.8184 57.1794 73.1786 57.7582L73.1808 57.8277C73.1827 57.8844 73.1846 57.9413 73.1846 57.9981C73.1846 60.1573 72.3684 62.1289 71.0294 63.6228H74.5909C75.3675 63.6228 75.9971 64.2526 75.9971 65.0291C75.9971 65.8056 75.3675 66.4353 74.5909 66.4353H5.40625C4.62958 66.4353 4 65.8056 4 65.0291C4 64.2526 4.62958 63.6228 5.40625 63.6228H14.5924C13.2535 62.129 12.4372 60.1573 12.4372 57.9981H8.21861C5.89239 57.9981 4 56.1056 4 53.7795V17.2186C4 14.8924 5.89239 13 8.21861 13H48.4356C50.7618 13 52.6542 14.8925 52.6542 17.2186V27.0619H64.4157C66.0239 27.0619 67.4696 27.9556 68.1891 29.3945ZM72.3156 43.9362L68.097 35.499H58.279V43.9362H72.3156ZM9.62471 46.7486H6.81236V49.5609H9.62471V46.7486ZM15.2496 57.9981C15.2496 61.0995 17.7728 63.6228 20.8743 63.6228C23.9758 63.6228 26.499 61.0996 26.499 57.9981C26.499 57.6151 26.4612 57.2379 26.3864 56.8773L26.3851 56.8714C25.8563 54.265 23.5386 52.3733 20.8743 52.3733C18.21 52.3733 15.8924 54.2651 15.3635 56.8714C15.2875 57.2381 15.2496 57.6151 15.2496 57.9981ZM12.9194 55.1856C14.0917 51.869 17.2713 49.5609 20.8743 49.5609C24.4757 49.5609 27.6541 51.8673 28.8284 55.1858H49.8419V17.2186C49.8419 16.4432 49.211 15.8124 48.4356 15.8124H8.21861C7.4432 15.8124 6.81236 16.4432 6.81236 17.2186V43.9359H11.031C11.8076 43.9359 12.4372 44.5656 12.4372 45.3422V50.9669C12.4372 51.7434 11.8076 52.3731 11.031 52.3731H6.81236V53.7794C6.81236 54.5548 7.4432 55.1856 8.21861 55.1856H12.9194ZM29.3114 57.9981C29.3114 60.1573 28.4952 62.1289 27.1561 63.6228H58.4654C57.1265 62.129 56.3102 60.1573 56.3102 57.9981H29.3114ZM59.1227 57.9981C59.1227 61.0995 61.6459 63.6228 64.7474 63.6228C67.8489 63.6228 70.3723 61.0996 70.3721 57.9981C70.3721 57.6151 70.3343 57.2379 70.2595 56.8773L70.2582 56.8714C69.7295 54.265 67.4117 52.3733 64.7474 52.3733C62.0831 52.3733 59.7655 54.2651 59.2366 56.8714C59.1607 57.2381 59.1227 57.6151 59.1227 57.9981ZM72.6019 54.917C72.9541 54.6611 73.1846 54.2472 73.1846 53.7795V46.7487H56.8728C56.0962 46.7487 55.4666 46.119 55.4666 45.3425V34.0929C55.4666 33.3164 56.0962 32.6866 56.8728 32.6866H66.6907L65.6734 30.6521C65.4335 30.1724 64.9516 29.8743 64.4155 29.8743H52.6541V55.1858H56.7925C57.9648 51.8691 61.1445 49.5611 64.7474 49.5611C68.2508 49.5611 71.3544 51.7433 72.6019 54.917Z" fill="#0E8792"/>
</svg>
