<svg width="80" height="80" viewBox="0 0 80 80" fill="none" xmlns="http://www.w3.org/2000/svg">
<path fill-rule="evenodd" clip-rule="evenodd" d="M69.1039 48.7291C69.2907 49.411 68.8869 50.1127 68.1997 50.2952L62.9189 51.7113L67.3255 54.2547C67.9344 54.6079 68.1454 55.391 67.7897 56.0029C67.5545 56.414 67.1205 56.643 66.6805 56.643C66.4636 56.643 66.2465 56.5882 66.0416 56.4712L61.6409 53.9279L63.0516 59.2117C63.2385 59.8952 62.8285 60.5971 62.1473 60.7802C62.0387 60.8092 61.9243 60.823 61.8158 60.823C61.2491 60.823 60.7307 60.4468 60.58 59.8748L58.5003 52.1181L53.7499 49.374L56.0408 57.9306C56.2276 58.6129 55.8177 59.3141 55.1366 59.4973C55.028 59.528 54.9135 59.5418 54.805 59.5418C54.2384 59.5418 53.726 59.1645 53.5692 58.5925L50.6153 47.5635L41.3558 42.2171V52.9101L49.4277 60.9832C49.9281 61.4836 49.9281 62.2937 49.4277 62.7942C49.1806 63.0438 48.8491 63.1698 48.5234 63.1698C48.1919 63.1698 47.8664 63.0438 47.6192 62.7942L41.3558 56.5314V62.0189L47.0345 67.697C47.5349 68.1962 47.5349 69.0076 47.0345 69.5067C46.7813 69.7563 46.4558 69.8817 46.1303 69.8817C45.7988 69.8817 45.4732 69.7563 45.22 69.5067L41.3558 65.6389V70.7201C41.3558 71.4278 40.7831 72 40.0718 72C39.3665 72 38.7938 71.428 38.7938 70.7201V65.6389L34.9236 69.5067C34.4293 70.0077 33.6155 70.0077 33.1151 69.5067C32.6147 69.0076 32.6147 68.1962 33.1151 67.697L38.7938 62.0189V56.5314L32.5304 62.7942C32.03 63.2939 31.2222 63.2939 30.7219 62.7942C30.2215 62.2938 30.2215 61.4836 30.7219 60.9832L38.7938 52.9101V42.2183L29.5343 47.5635L26.5804 58.5925C26.4236 59.1645 25.9112 59.5418 25.3447 59.5418C25.2362 59.5418 25.1216 59.528 25.0132 59.4973C24.332 59.314 23.922 58.6129 24.109 57.9306L26.3997 49.374L21.6493 52.1181L19.5696 59.8748C19.4128 60.4468 18.9004 60.823 18.3337 60.823C18.2192 60.823 18.1106 60.8092 18.0022 60.7802C17.315 60.5969 16.9111 59.8952 17.098 59.2117L18.5147 53.9279L14.1081 56.4712C13.9031 56.5882 13.686 56.643 13.4691 56.643C13.023 56.643 12.595 56.414 12.3598 56.0029C12.0042 55.391 12.2152 54.6079 12.83 54.2547L17.2306 51.7113L11.9498 50.2952C11.2626 50.1126 10.8588 49.4109 11.0456 48.7291C11.2265 48.0455 11.9258 47.641 12.607 47.8236L20.3655 49.9016L25.1219 47.1582L16.5617 44.8656C15.8805 44.6823 15.4766 43.98 15.6575 43.2975C15.8444 42.6139 16.5436 42.2101 17.2249 42.3927L28.2567 45.3472L37.5163 40.0006L28.2567 34.6547L17.2249 37.6092C17.1163 37.6388 17.0018 37.6538 16.8933 37.6538C16.3267 37.6538 15.8143 37.2764 15.6575 36.7042C15.4766 36.0219 15.8806 35.3189 16.5617 35.1362L25.1219 32.8436L20.3655 30.1008L12.607 32.1781C12.4984 32.2089 12.39 32.2227 12.2755 32.2227C11.7148 32.2227 11.1964 31.8453 11.0458 31.2733C10.8589 30.5909 11.2627 29.888 11.95 29.7053L17.2308 28.2892L12.8301 25.7471C12.2152 25.3939 12.0042 24.6108 12.3599 23.9989C12.7095 23.3871 13.4933 23.1773 14.1082 23.5306L18.5149 26.0726L17.0981 20.7899C16.9113 20.1063 17.3152 19.4046 18.0023 19.2219C18.6836 19.0386 19.3828 19.4432 19.5697 20.1268L21.6495 27.8835L26.3998 30.6263L24.1091 22.0708C23.9222 21.389 24.3321 20.6861 25.0133 20.5041C25.6945 20.3203 26.3938 20.7259 26.5807 21.4096L29.5345 32.4379L38.7941 37.7832V27.0913L30.7215 19.0174C30.2211 18.5182 30.2211 17.7081 30.7215 17.2077C31.2218 16.7079 32.0297 16.7079 32.53 17.2077L38.7935 23.4705V17.9829L33.1147 12.3048C32.6144 11.8044 32.6144 10.9942 33.1147 10.4951C33.6151 9.99476 34.4289 9.99476 34.9232 10.4951L38.7935 14.3623V9.28039C38.7935 8.57383 39.3661 8 40.0714 8C40.7827 8 41.3554 8.57395 41.3554 9.28039V14.3623L45.2196 10.4951C45.72 9.99476 46.5338 9.99476 47.0341 10.4951C47.5345 10.9942 47.5345 11.8044 47.0341 12.3048L41.3554 17.9829V23.4705L47.6188 17.2077C48.1192 16.7079 48.927 16.7079 49.4274 17.2077C49.9277 17.7081 49.9277 18.5182 49.4274 19.0174L41.3554 27.0918V37.7837L50.6149 32.4384L53.5688 21.4101C53.7497 20.7265 54.455 20.322 55.1362 20.5046C55.8174 20.6866 56.2273 21.3896 56.0404 22.0714L53.7496 30.6268L58.4999 27.884L60.5797 20.1273C60.7665 19.4449 61.4658 19.0391 62.147 19.2224C62.8282 19.4051 63.2381 20.1068 63.0514 20.7905L61.6407 26.0732L66.0413 23.5311C66.6562 23.1778 67.4338 23.3876 67.7895 23.9994C68.1453 24.6113 67.9342 25.3944 67.3254 25.7477L62.9187 28.291L68.1995 29.7071C68.8868 29.8886 69.2906 30.5915 69.1037 31.2738C68.9531 31.8459 68.4345 32.2232 67.8679 32.2232C67.7593 32.2232 67.6509 32.2094 67.5364 32.1787L59.7839 30.1013L55.0275 32.8441L63.5878 35.1367C64.269 35.3194 64.6729 36.0224 64.492 36.7048C64.3353 37.2768 63.8168 37.6543 63.2561 37.6543C63.1476 37.6543 63.033 37.6392 62.9246 37.6097L51.8928 34.6552L42.6332 40.0012L51.8928 45.3477L62.9246 42.3932C63.6059 42.2106 64.3051 42.6145 64.492 43.2981C64.6729 43.9804 64.269 44.6828 63.5878 44.8661L55.0275 47.1587L59.7839 49.9021L67.5364 47.8242C68.2237 47.6398 68.923 48.0455 69.1039 48.7291Z" fill="#0E8792"/>
</svg>
