<svg width="79" height="79" viewBox="0 0 79 79" fill="none" xmlns="http://www.w3.org/2000/svg">
<g id="ornament 2" clip-path="url(#clip0_1040_4637)">
<path id="Vector" d="M42.8107 34.8685C42.896 34.8666 42.9808 34.8825 43.0596 34.9152C43.1383 34.9479 43.2094 34.9967 43.2683 35.0585C43.3844 35.1684 43.4556 35.3174 43.4684 35.4768C43.4811 35.6362 43.4345 35.7947 43.3373 35.9217C41.6108 38.2095 41.0151 42.0338 41.0151 44.8568C41.0151 47.3863 41.8093 51.0725 43.1474 52.8509C43.2293 52.959 43.2737 53.0909 43.2737 53.2265C43.2737 53.3621 43.2293 53.4939 43.1474 53.602C43.0712 53.7137 42.962 53.7987 42.835 53.8451C42.7081 53.8916 42.5698 53.8971 42.4395 53.861C39.8496 53.0926 37.0267 50.7877 35.2051 47.887C32.7023 49.6417 29.9723 51.0474 27.0902 52.0653C26.9755 52.1068 26.8514 52.115 26.7323 52.089C26.6132 52.063 26.5038 52.0039 26.4168 51.9186C26.3317 51.8295 26.2724 51.7191 26.245 51.599C26.2176 51.479 26.2233 51.3537 26.2614 51.2366C27.2831 48.3588 28.6886 45.632 30.4397 43.1302C27.5391 41.3 25.26 38.5202 24.4744 35.8958C24.4363 35.7654 24.4403 35.6262 24.4857 35.4982C24.5311 35.3701 24.6157 35.2596 24.7274 35.1822C24.8391 35.1049 24.9724 35.0646 25.1082 35.0672C25.2441 35.0698 25.3757 35.115 25.4844 35.1966C27.2628 36.5347 30.9404 37.3376 33.4699 37.3376C36.2929 37.3376 40.1259 36.7246 42.405 35.0153C42.5205 34.9232 42.6631 34.8716 42.8107 34.8685ZM33.4872 38.6152C31.0695 38.5872 28.6791 38.1009 26.4427 37.1822C27.7221 39.3369 29.5398 41.1219 31.7174 42.3619C31.7961 42.4086 31.8644 42.471 31.9179 42.5453C31.9713 42.6196 32.0089 42.7041 32.0282 42.7936C32.0488 42.8829 32.0495 42.9756 32.0301 43.0651C32.0107 43.1546 31.9717 43.2388 31.916 43.3115C30.3226 45.4759 29.0114 47.8344 28.0139 50.3301C30.5057 49.3265 32.8609 48.0125 35.0238 46.4194C35.0979 46.3649 35.1827 46.3268 35.2727 46.3077C35.3626 46.2885 35.4556 46.2888 35.5455 46.3084C35.6353 46.328 35.7199 46.3665 35.7937 46.4214C35.8675 46.4762 35.9288 46.5462 35.9734 46.6266C37.216 48.8022 39.0005 50.6194 41.1532 51.9013C40.2403 49.6604 39.7571 47.2677 39.7288 44.8482C39.7111 42.2426 40.1825 39.6569 41.1187 37.2253C38.6841 38.1618 36.0955 38.6332 33.4872 38.6152Z" fill="#E8C994" stroke="#E8C994"/>
<path id="Vector_2" d="M0.647514 0.0345009L78.3439 0.0345077C78.4293 0.033348 78.514 0.0492782 78.5931 0.0814056C78.6722 0.113533 78.744 0.161209 78.8044 0.221565C78.8647 0.281921 78.9124 0.353775 78.9445 0.432854C78.9766 0.511932 78.9926 0.596634 78.9914 0.681984L78.9914 78.3784C78.9914 78.5501 78.9232 78.7148 78.8018 78.8362C78.6803 78.9577 78.5156 79.0259 78.3439 79.0259C78.1722 79.0259 78.0075 78.9577 77.8861 78.8362C77.7647 78.7148 77.6965 78.5501 77.6965 78.3784L77.6965 1.32081L0.638869 1.3208C0.467147 1.3208 0.302459 1.25264 0.181037 1.13122C0.0596077 1.0098 -0.00859912 0.845055 -0.00859911 0.673333C-0.00859909 0.501611 0.0596077 0.336976 0.181037 0.215554C0.302459 0.0941246 0.467147 0.0258644 0.63887 0.0258644L0.647514 0.0345009Z" fill="#E8C994" stroke="#E8C994"/>
<path id="Vector_3" d="M54.7674 0.034456C54.8997 0.033058 55.0292 0.0722292 55.1386 0.146688C59.5241 3.14232 61.76 12.7939 59.8176 19.2082C66.2405 17.2744 75.8922 19.5104 78.8878 23.8959C78.9761 24.0335 79.0083 24.1996 78.9778 24.3602C78.9473 24.5208 78.8564 24.6636 78.7238 24.7592C78.5856 24.8454 78.42 24.8764 78.26 24.846C78.1 24.8156 77.9574 24.726 77.8605 24.5951C74.9857 20.3909 64.7816 18.3622 59.0407 20.8571C58.9198 20.9148 58.7841 20.9336 58.6521 20.9109C58.5202 20.8883 58.3985 20.8253 58.3038 20.7306C58.2091 20.636 58.1461 20.5143 58.1235 20.3823C58.1008 20.2504 58.1197 20.1146 58.1774 19.9938C60.6723 14.2529 58.6436 4.04873 54.4393 1.17396C54.3102 1.07588 54.2214 0.93408 54.1896 0.775083C54.1578 0.616089 54.1852 0.450859 54.2667 0.310663C54.3234 0.229353 54.398 0.162233 54.4849 0.114336C54.5717 0.0664384 54.6683 0.0390909 54.7674 0.034456Z" fill="#E8C994" stroke="#E8C994"/>
<path id="Vector_4" d="M63.5988 26.7966C65.6994 26.8021 67.7828 27.1761 69.7541 27.9017C72.3997 28.909 74.6887 30.6754 76.3337 32.9793C77.9787 35.2832 78.9063 38.0218 79 40.8511C79 41.0228 78.9318 41.1874 78.8104 41.3089C78.6889 41.4303 78.5243 41.4985 78.3525 41.4985C78.1808 41.4985 78.0161 41.4303 77.8947 41.3089C77.7733 41.1874 77.7051 41.0228 77.7051 40.8511C77.624 38.2783 76.783 35.787 75.2881 33.6915C73.7933 31.5959 71.7115 29.9899 69.3052 29.0757C67.2131 28.2726 64.9715 27.9339 62.7355 28.0829C60.4996 28.232 58.3228 28.8653 56.3558 29.939C54.4821 31.0078 52.8836 32.4991 51.6875 34.2942C50.4914 36.0893 49.7307 38.1387 49.4658 40.2795C49.2009 42.4203 49.4392 44.5934 50.1617 46.6259C50.8843 48.6584 52.0711 50.4943 53.6278 51.9875C54.951 53.1959 56.5127 54.1136 58.2122 54.6816C59.9117 55.2496 61.7114 55.4553 63.4952 55.2853C64.9455 55.1619 66.2964 54.4977 67.2799 53.4247C68.2634 52.3517 68.8076 50.9481 68.8045 49.4926C68.8174 49.277 68.8174 49.0608 68.8045 48.8451C68.6836 48.2236 67.5873 47.8092 66.888 47.861C66.2285 47.9355 65.6167 48.2414 65.1614 48.7243L64.8247 49.0264C64.2978 49.6015 63.6181 50.0147 62.865 50.2178C62.2128 50.3572 61.5335 50.2918 60.9198 50.0305C60.3062 49.7692 59.7883 49.3247 59.4368 48.7579C59.0854 48.191 58.9176 47.5294 58.9564 46.8636C58.9952 46.1978 59.2387 45.5602 59.6536 45.038C60.0594 44.5291 60.5685 44.112 61.1474 43.8144C61.7263 43.5167 62.3618 43.3453 63.0118 43.3114C63.9395 43.2274 64.8747 43.3275 65.7636 43.606C66.6525 43.8846 67.4777 44.336 68.1916 44.9344C68.8235 45.5301 69.3224 46.2525 69.6557 47.0544C69.9889 47.8563 70.149 48.7195 70.1253 49.5876C70.1246 51.3705 69.4527 53.0878 68.2434 54.3978C67.0341 55.7079 65.376 56.5148 63.5988 56.658C61.6353 56.8403 59.6554 56.6079 57.7874 55.9758C55.9195 55.3438 54.2052 54.3262 52.7559 52.989C51.0524 51.3572 49.7533 49.3504 48.9618 47.1282C48.1703 44.9061 47.9083 42.5299 48.1967 40.1886C48.485 37.8474 49.3158 35.6058 50.6228 33.6421C51.9298 31.6784 53.6771 30.0469 55.7256 28.8772C58.1242 27.5102 60.8381 26.793 63.5988 26.7966ZM68.0707 46.7819C67.8578 46.4405 67.5993 46.1297 67.3024 45.8582C66.1191 44.8833 64.5989 44.4149 63.0722 44.5546C62.5942 44.5734 62.1255 44.6932 61.6971 44.9059C61.2686 45.1187 60.8899 45.4197 60.5859 45.7891C60.3262 46.1001 60.1701 46.4845 60.1397 46.8885C60.1093 47.2926 60.206 47.6961 60.4163 48.0425C60.6266 48.3889 60.9399 48.6607 61.3125 48.8202C61.685 48.9796 62.0981 49.0185 62.4938 48.9315C63.0138 48.7683 63.4814 48.4704 63.8492 48.0682L64.2118 47.7401C64.9113 47.0619 65.8294 46.6548 66.8017 46.5919C67.2298 46.5858 67.6567 46.638 68.0707 46.7473L68.0707 46.7819Z" fill="#E8C994" stroke="#E8C994"/>
<path id="Vector_5" d="M38.1403 0.0344398C40.9661 0.123166 43.7028 1.04484 46.0067 2.68365C48.3106 4.32246 50.0789 6.6054 51.0897 9.24582C51.9701 11.5117 52.3488 13.9414 52.1998 16.3677C52.0508 18.794 51.3775 21.1591 50.2264 23.3002C49.0562 25.3496 47.4237 27.0976 45.4589 28.4049C43.4941 29.7121 41.2512 30.5426 38.9088 30.8302C36.5664 31.1177 34.1892 30.8544 31.9666 30.0612C29.7439 29.268 27.7371 27.9669 26.1059 26.2613C24.7719 24.8119 23.7568 23.0987 23.1263 21.2324C22.4958 19.3662 22.2639 17.3884 22.4456 15.4269C22.5887 13.6498 23.3956 11.9917 24.7057 10.7824C26.0158 9.57309 27.7331 8.90123 29.516 8.90048C30.383 8.87477 31.2456 9.03391 32.0464 9.36732C32.8472 9.70074 33.5679 10.2008 34.1605 10.8342C34.7616 11.5467 35.2154 12.3714 35.4955 13.2606C35.7756 14.1497 35.8764 15.0856 35.7921 16.014C35.7599 16.6644 35.5892 17.3004 35.2914 17.8795C34.9937 18.4586 34.5757 18.9676 34.0655 19.3722C33.5433 19.7871 32.9057 20.0306 32.2399 20.0694C31.5741 20.1082 30.9125 19.9405 30.3457 19.589C29.7788 19.2376 29.3344 18.7196 29.0731 18.106C28.8117 17.4923 28.7463 16.813 28.8858 16.1608C29.0887 15.4052 29.5018 14.7227 30.0771 14.1925L30.3793 13.8644C30.8475 13.4035 31.138 12.792 31.1994 12.1378C31.1994 11.4386 30.8454 10.3508 30.2325 10.23C30.0111 10.2169 29.7891 10.2169 29.5678 10.23C28.1122 10.2269 26.7087 10.7711 25.6357 11.7546C24.5626 12.738 23.8985 14.0889 23.7751 15.5392C23.6068 17.3263 23.8157 19.1289 24.3882 20.8302C24.9607 22.5315 25.8842 24.0935 27.0987 25.4153C28.592 26.972 30.4279 28.1588 32.4604 28.8813C34.4929 29.6038 36.6659 29.8421 38.8067 29.5773C40.9475 29.3124 42.997 28.5517 44.7921 27.3556C46.5872 26.1595 48.0785 24.561 49.1473 22.6873C50.216 20.7186 50.8465 18.5421 50.9955 16.307C51.1445 14.0719 50.8085 11.831 50.0106 9.73785C49.0958 7.33024 47.4884 5.2475 45.3912 3.75255C43.294 2.25759 40.8009 1.41744 38.2266 1.33802C38.0549 1.33802 37.8902 1.26976 37.7688 1.14833C37.6473 1.02691 37.5791 0.862271 37.5791 0.69055C37.5791 0.51883 37.6473 0.354088 37.7688 0.232663C37.8902 0.111239 38.0549 0.04308 38.2266 0.0430801L38.1403 0.0344398ZM31.9246 18.8456C32.3979 18.8438 32.8581 18.6894 33.2368 18.4054C33.6013 18.1053 33.9005 17.7337 34.1159 17.3135C34.3312 16.8933 34.458 16.4333 34.4885 15.9622C34.6245 14.4358 34.1565 12.9172 33.185 11.7321C32.9135 11.4351 32.6027 11.1766 32.2612 10.9638C32.3828 11.3667 32.441 11.786 32.4339 12.2069C32.3704 13.1773 31.9669 14.0943 31.2943 14.7967L30.9663 15.1594C30.5594 15.5232 30.2607 15.9921 30.103 16.5147C30.0358 16.8949 30.0762 17.2862 30.2196 17.6447C30.363 18.0032 30.6036 18.3144 30.9145 18.5434C31.213 18.7331 31.5626 18.8265 31.9159 18.8111L31.9246 18.8456Z" fill="#E8C994" stroke="#E8C994"/>
</g>
<defs>
<clipPath id="clip0_1040_4637">
<rect width="79" height="79" fill="white" transform="translate(79 79) rotate(-180)"/>
</clipPath>
</defs>
</svg>
